
<svg xmlns="http://www.w3.org/2000/svg" version="1.1" xmlns:xlink="http://www.w3.org/1999/xlink" preserveAspectRatio="none" x="0px" y="0px" width="550px" height="400px" viewBox="0 0 550 400">
<defs>
<g id="Layer0_0_FILL">
<path fill="#000000" stroke="none" d="
M 486.7 212.9
L 486.75 214.2 486.95 214.15 486.95 213.7 486.7 212.9
M 492.95 162.2
Q 492.3 161.55 491.95 161.25 489.45 159 485.55 158.6 482.05 158.25 478.35 159.45 475.7 160.3 471.85 162.35 466.45 165.2 465.45 165.65 463.85 166.35 463.25 166.9 462.75 167.45 462.5 167.7 462.05 168.15 461.65 168.3 461.35 168.4 460.6 168.5 459.95 168.55 459.6 168.75 459.35 168.9 459 169.35 458.65 169.85 458.45 170 458.15 170.3 457.5 170.55 456.75 170.85 456.5 171 456.05 171.25 455.35 172.05 454.65 172.8 454.15 173.1 453 173.55 452.6 174 452.45 174.25 452.2 174.8 452 175.35 451.8 175.55 451.55 175.95 450.9 176.25 450.15 176.6 449.8 176.8 448.95 177.25 447.8 179.05 446.6341796875 180.863671875 446 182.15 445.883203125 181.8251953125 445.75 181.55 445.25 182.65 445.25 184.7
L 444.9 199.95
Q 444.9 201.75 445.05 202.6 445.25 204 446 204.9
L 448.4 205.05
Q 451.75 202.45 453.5 198.7 454.3 197 454.6 196.55 455.3 195.4 456.25 195.05
L 460 189.35
Q 461.5 187.05 462.4 185.95 463.8 184.2 465.35 183.15 466.55 182.3 467.55 182.5 468.15 182.65 468.95 183.35 470.65 184.9 473.65 189.1
L 477.1 194.15
Q 480.3892578125 199.1984375 482.3 204.65 482.0517578125 205.203125 481.85 205.65 480.35 208.95 480.65 212.05 480.8 214.05 481.85 216.4 482.15 217.05 483.9 220.55 484.85390625 222.3625 486.1 225.1 486.1193359375 225.6314453125 486.15 226 486.41015625 227.690625 487.4 228.3 486.9875 228.7890625 486.6 230
L 476.1 264.25
Q 474.65 269.25 473.65 274.9 472.55 280.85 472.9 284.75 473.1 287.3 474 290.3 474.5 292.2 475.8 295.7
L 483.25 316.45
Q 483.3125 316.6123046875 483.35 316.75 482.15703125 316.7978515625 480.65 316.9 476.85 317.15 475.8 317.2 469.1 317.35 458.6 315.45 444.95 313 441.4 312.65 439.95 312.55 439.5 313.15 453.35 315.75 465.3 317.4 474.2 318.75 479.5 318.5 480.3 318.5 484.2 318.2 484.2935546875 318.191796875 484.35 318.15 484.7017578125 318.4 485.05 318.4 485.0224609375 318.2642578125 485 318.1 487.3173828125 317.964453125 488.9 318.05 491 318.1 494 318.65 495.65 318.95 499.05 319.55 499.9392578125 319.6876953125 500.9 319.8 501.0939453125 319.9267578125 501.35 320 501.95 320.2 502.6 320 504.73203125 320.2171875 507.15 320.35 509.85 320.45 515.3 320.5
L 538.3 320.75
Q 541.5 320.75 543.1 320.65 550.75 320.1 557.1 315.9 555.1 315.65 552.2 316.7 549 318.1 547.35 318.55 545.2 319.15 540.1 319.25
L 515.15 319.4
Q 508.293359375 319.4896484375 503.95 319.15 504.28984375 318.86015625 504.65 318.5 506.6 316.55 506.65 315.1 506.75 313.95 505.65 312.05 499.65 301.8 492.15 293.15 488.777734375 289.215625 485.8 288.7 485.802734375 287.330078125 485.65 285.6
L 485.25 278.5
Q 485.2212890625 278.148828125 485.2 277.8 485.5125 277.7826171875 485.8 277.65 485.8 276.3494140625 486.15 274.75
L 486.25 274.6
Q 486.3486328125 274.4029296875 486.25 274.15 486.416015625 273.609375 486.6 273 487.1 271.3 487.8 270.05 489.5 267.2 494.25 264.85 496.45 263.75 496.95 263.45 497.23828125 263.276953125 497.5 263.1 497.96875 263.2013671875 498.5 263.15 498.5 262.7205078125 498.55 262.3 498.9748046875 261.9326171875 499.3 261.55 500.35 260.35 500.6 258.75 500.6298828125 258.504296875 500.6 258.25 500.9150390625 257.957421875 501.25 257.6 502.1 256.65 502.9 256 503.25 255.7 504.95 254.5 506.25 253.55 506.9 252.8 507.95 251.6 509 248.75 510.05 245.65 510.9 244.5 511.3 243.95 512.45 242.7 513.45 241.6 513.9 240.85
L 515.25 238.25
Q 515.55 237.35 515.55 235.9 515.65 232.75 515.05 231.1 514.5 229.65 514.5 229.4 514.45 229.05 514.55 228.25 514.6 227.5 514.55 227.1 514.5 226.5 514.1 225.6 513.55 224.45 513.45 224.1 513.25 223.55 513.15 221.1 513.05 218.95 511.8 215.2
L 510.6 211.75 514.2 208.45
Q 515.3 207.35 515.6 206.85 516.45 205.5 516.25 202.95 516 199.45 516.1 198.75 516.15 198.4 516.85 195.8 517.35 194 517.05 192.8
L 515.65 194
Q 514.25 195.2 513.85 196 513.25 197.2 513.55 200.2 513.75 202.75 513.15 204.25 512.75 205.35 511.15 207.15 505.9 212.85 500.2 217.2 498.95 218.2 498.65 218.55 497.85 219.35 497.6 220.2 497.4 220.8 497.45 221.85 497.5 223.2 497.45 223.5 497.4 224.2 497.05 225.4 496.65 226.7 496.55 227.25 496.35 228.35 496.45 229.95 496.55 230.85 496.7 232.7 496.95 236.45 495.55 239.95
L 495.5 239.55 488.45 225
Q 488.4279296875 223.9779296875 488.55 223.5
L 488.2 221.9
Q 487.8 220.4 487.3 219.8 486.75 219.3 486.5 219.05 486 218.6 485.95 218.15 485.9 217.95 486 217.35 486.05 216.85 485.95 216.6 485.5 216.1 485.3 215.85 485.05 215.55 484.95 214.4
L 484.95 209.25
Q 484.88359375 207.9564453125 485.15 207.1
L 484.6 205
Q 485.558984375 203.0986328125 487.5 200.4 489.95 197 490.8 195.6 492.45 192.75 493.05 190.3 493.3 189.25 493.5 187.15 493.6 184.35 492.85 182.8 492.3 183.4 492.1 185.1 491.55 190 490 193.1 489.45 194.1 487.55 196.8
L 484.2 201.7
Q 484.023828125 201.95625 483.85 202.2
L 481.55 193.65
Q 481.2 192.35 480 188.9
L 478.85 185.7
Q 477.65 182.1 476.15 180.8
L 475.25 180.7
Q 474.7 183.65 476.1 187.2 477.05 189.65 479.4 193.2 480.55 194.95 480.2 196 479.45 194.65 478.1 192.7 476.15 189.85 475.9 189.5 474.35 186.95 473.55 185.7 472.2 183.55 470.9 182.2 469.75 180.95 468.6 180.45 467 179.75 465.2 180.35 463.35 180.95 462.5 182.5 461.05 183.8 458.5 187.65
L 449.95 200.25
Q 448.2 202.7 446.75 201.95
L 446.5 186.3
Q 446.5 184.4943359375 446.25 183.2 446.56953125 182.983984375 446.8 182.5 447.1 182 447.55 180.95 447.85 180.5 448.7 179.65 449.35 178.85 449.25 178.2 450.7 177.9 452.3 176.1 454.3 173.85 455.15 173.35 455.95 172.9 457.7 172.25 457.9 172.15 459.7 170.75 461.9 169.25 464.45 168.95 464.65 167.95 466.45 167.75 466.4 167.15 467.45 166.6 470.65 164.9 472.3 164.15 475.45 162.85 475.9 162.6
L 477.9 161.65
Q 480.1 160.7 483.45 160.35 486.9 159.95 488.55 161.15 489.05 161.55 489.85 162.6 490.65 163.6 491.15 164 492 164.75 493.2 165 494.35 165.2 495.45 164.8 495.7 164.6 495.65 164.2 495.6 163.85 495.35 163.6 495.3 163.55 494.1 162.95 493.55 162.7 492.95 162.2
M 483.85 215.05
Q 483 212.65 483.05 210.55 483.0734375 209.351953125 483.4 208.1 484.1 210.55 484.85 214.3
L 485.65 218.05
Q 485.8787109375 219.0953125 486 219.95
L 485.7 219.3
Q 484.4 216.65 483.85 215.05
M 483.8 246.7
Q 483.6625 246.7 483.55 246.7
L 488.5 230.25 488.65 230.55
Q 489.25 231.95 490.3 234.8 492.35 240.3 495.15 246.45 496.1 248.45 497.2 248.05 498.2 247.7 497.95 245.4 497.65 243.1 498.35 239.35 499.2 234.75 499.25 233.3 499.2 231.25 499.2 230.25 499.2 228.45 499.45 227.25 500.25 225 500.3 223.8
L 500.25 222.45
Q 500.25 221.65 500.45 221.15 500.65 220.6 501.2 220.1 501.3 220 502.25 219.25 502.5 219.05 505.45 216.55
L 509.9 212.4 511.75 218.05
Q 512.35 220 512.4 220.65 512.45 221.2 512.5 222.5 512.5 223.65 512.6 224.3 512.65 224.6 513 226 513.25 227.05 513.3 227.75 513.3 228.1 513.25 229 513.2 229.75 513.25 230.2 513.35 231.1 514.05 232.8 515 236.05 512.5 239.85 512.35 240.05 509.75 243.35 508.05 245.5 507.5 247.15 507.3 247.75 507 248.95 506.7 250 506.25 250.55 505.75 251.25 504.6 251.9 502.85 252.9 502.7 253 501.95 253.55 500.9 254.7 500.2361328125 255.4466796875 499.75 255.9 499.6314453125 255.9048828125 499.45 256.05 499.25 256.25 499.2 256.5 498.55 257.1 498.2 257.4 497.65 257.95 497.35 258.45 497.1 258.9 496.75 260.4 496.6984375 260.606640625 496.65 260.8 493.7013671875 262.829296875 490.55 264.3 487.75 265.5 486.75 266.75 486.2 267.45 485.8 268.7 485.15 270.55 485.05 270.8 484.8 271.35 484.25 272.4 483.8099609375 273.2359375 483.7 273.9 482.1486328125 274.3611328125 479.75 274.45 476.5056640625 274.578125 475.6 274.6 477.15703125 267.1482421875 481.1 254.75
L 482.7 249.45
Q 483.447265625 248.990625 483.2 248.15 483.65 248.2 486.85 248 489.05 247.85 490.35 248.4 491.15 248.7 492.3 249.45 495.05 251.05 498.2 252 498.1 252.75 498.5 253.45 499.15 253.15 499.4 252.35 499.6 251.55 499.2 250.95 497.15 250.6 493.55 248.6 491.35 247.4 490.15 247.1 489.3 246.9 487.55 246.8
L 483.8 246.7
M 483.5 277.45
Q 483.8931640625 277.715625 484.4 277.8 484.05 281.790625 484.05 285.35 484 288.75 483.8 290.15 483.4 292.8 482.1 294.4 480.75 295.8 480.1 296.5 479.140625 297.5845703125 478.95 298.55
L 476.05 289.85
Q 475.05 287 474.75 285.15 474.25 282 475.2 276.65 475.2974609375 276.11015625 475.4 275.5
L 480 275.95
Q 479.05 276.5 478.55 277.55 478.05 278.6 478.2 279.7
L 481.15 279.65
Q 481.55 278.7 482.45 278 482.9458984375 277.641796875 483.5 277.45
M 485.65 291
Q 485.7375 290.4162109375 485.75 289.7 486.72109375 290.0908203125 487.65 290.9 488.65 291.75 490.15 293.7
L 495.1 300.2
Q 498.6 304.9 500.15 307.25 502.75 311.3 504.05 314.9 503.7 315.4 502.9 315.9 502 316.4 501.55 316.65 500.85 317.15 500.5 317.8 500.24765625 318.2486328125 500.2 318.65 498.0015625 318.3076171875 494.25 317.7 488.85 316.8 485.45 316.75 485.0900390625 316.740234375 484.7 316.75 484.0638671875 314.0560546875 483.15 311.2
L 479.05 298.95 481.4 299.1
Q 484.95 295.85 485.65 291
M 521.65 162.9
Q 521.6248046875 162.8802734375 521.6 162.85 519.7 160.45 517.5 159.5 515.7 158.7 511.8 158.4 505.45 157.9 502.25 157.85 496.95 157.8 492.8 158.6 492.25 158.7 491.85 158.95 491.4 159.3 491.45 159.7 498.65 159.2 501.95 159.15 507.8 159.05 512.4 159.9 516.4 160.55 518.55 162.25 520.15 163.45 522.3 167.05
L 526.25 173.65 528.4 173.55 524.65 167.4
Q 523.4154296875 165.3533203125 522.5 164.05 524.465234375 163.607421875 527.15 165.7 530.8 168.5 534.65 173.45 536.9 176.3 541.15 182.2
L 547.5 190.05
Q 548.6 191.25 548.6 192.2 548.6 192.45 548.1 193.95 547.65 195.35 547.65 198.35
L 547.8 210.6
Q 547.8 215.65 547.05 218.05 546.5 219.8 545.2 221.75 544.4 222.95 542.7 225.1 538.85 229.9 537.1 231.75 538.35 224.85 538.4 218.05 538.5 211.05 536.5 207.1 535.45 205.2 534.35 204.45 532.65 203.65 531.85 203.15 530.8 202.5 529.85 201.05 528.85 199.35 528.35 198.5 526.35 195.1 523.95 194.9 523.05 194.8 522.25 195.35 521.45 195.9 521.4 196.75 523.55 197.05 525.3 198.5 527.05 199.9 527.75 201.95 528.05 202.7 528.5 204.2 529 205.5 529.8 206 530.4 206.35 531.75 206.75 533.45 207.45 534.5 210.05 535.3 212.15 535.5 214.85 535.65 216.6 535.55 219.8 535.45 225.7 534.75 228.5 534.6 229.3 534.15 230.85 533.8 232.25 533.75 233.2 533.75 233.65 533.7 234.5 533.7 235.25 533.5 235.75 533.35 236.2 532.8 237 532.4 237.7 532.5 238.25 532.6 238.95 533.4 239.3 534.1 239.6 534.85 239.35 535.75 239.05 537.05 237.45
L 544.5 227.75
Q 546.5 225.15 547.35 223.75 548.7 221.4 549.4 218.8 549.95 216.5 550.1 213.55 550.15 212 550.1 208.25
L 549.85 198.2
Q 549.75 195.25 550.65 193.95 551.4 193.1 551.6 192.6 552.3 190.95 549.75 188.65 547.2 186.2 542.9 180.7
L 539.25 176
Q 536.35 172.35 535.3 171.1 533 168.4 530.95 166.6 526.9 162.9 523.25 162.6 522.1986328125 162.5044921875 521.65 162.9
M 412 281.45
Q 411.95 281.3 411.15 278.7 409.8 274.15 407.4 270.2 404.7 265.65 401 262.45 396.95 258.95 392.35 257.6 391.7 257.45 391.1 257.6 390.45 257.8 390.5 258.35 396.1 258.95 401.75 265.55 405.6 270.05 407.6 274.6 408.9 277.6 410.55 284.1 405.334765625 283.3548828125 400.15 282.9
L 400.2 282.75
Q 400.2 282.35 399.95 281.95 399.75 281.9 399.35 282.1
L 398.65 282.6
Q 398.3744140625 282.55 398.1 282.55 398.0580078125 282.66015625 398 282.75 392.119921875 282.35 386.25 282.35 385.75 283.25 386.25 284.1 392.28359375 283.995703125 398.2 284.65 398.2470703125 284.78515625 398.3 284.9 398.7 285.75 399.75 287.1 406.8 295.85 408.4 306.8 407.25 306.5 405.15 305.05 400.61875 302.03828125 395.6 300.75 394.669921875 299.6197265625 393.45 298.65 393.3380859375 299.501171875 393.45 300.3 390.407421875 299.7677734375 387.2 299.85 388.65 302.4 392.7 303.25 393.2958984375 303.4087890625 395 303.65 395.3080078125 304.09375 395.7 304.6 396.3 305.55 397.4 308.55 398.05 310.25 399.7 313.5 401.35 316.75 402 318.45 402.65 320.2 403.7 324.05
L 404.85 328.2
Q 403.95 328.45 402.55 327.3 399.6 325 392.9 321.6
L 389.6 319.9
Q 387 318.7 383.95 317.5 379.15 315.6 376.15 314.95 373.2 314.3 369.5 314.15 367.05 314 362.75 314.05
L 359.8 314.1
Q 363.543359375 307.0658203125 366.9 302.75 368.5 300.6 369.9 299.45 371.1 298.45 373.75 296.75 376.05 295.15 377 293.5 377.8 292.15 378 290.2 378.15 289 378.1 286.65 378 283.4 377.5 281.85 376.8 279.95 374.15 277.1 370.2 273 366.75 270 364.5 268.05 362.85 267.3 361.3 266.75 360.55 266.4 359.3 265.8 359 264.85 358.65 264.8 358.4 265.15 358.15 265.55 358.3 265.9 358.45 266.4 359.35 266.95 366.3 271.2 371.75 277.35 375.15 281.25 375.85 284.3 376.4 286.75 375.5 289.25 374.65 291.75 372.75 293.35 372.05 293.95 371 294.6 369.75 295.35 369.15 295.7 365.9 297.85 363 301.85 361.2 304.3 358.4 309.4 355.85 314.1 355 316 353.2 319.75 352.45 322.9 352.25 323.75 351.85 325.45 351.45 326.9 350.9 327.85 349.8 329.85 347.5 331.1 345.45 332.2 342.9 332.4 339.35 332.6 333.55 330.6 331.5 329.9 331.05 328.75 332.65 327.95 335.7 329.1 339.1 330.4 340.5 330.2 340.8 329.45 341.85 328.9 342.45 328.6 343.7 328.1 345.25 327.45 346.45 326.1 347.6 324.75 348.1 323.1 346.85 322.15 344.85 321.9 343.65 321.7 341.25 321.7 336.9 321.7 334 321.3 330.1 320.7 327.15 319.25 324.4 317.95 324 316 331.9 315.25 340.25 316.2 343.7 316.6 345.05 315.5 346.2 314.55 346.2 312.85 346.2 311.25 345.2 310 343.9 308.3 340.15 306.7 336.35 304.95 335.15 303.35 343.55 302.2 351.6 303.6 351.55 301.45 353.3 298.85 354.25 297.4 356.3 294.5 356.8 293.55 357.9 290.65 358.85 288.25 359.75 287 360 286.7 360.5 286 360.9 285.4 360.95 284.9 361.05 283.65 359.1 282.2
L 354.8 279
Q 353.7974609375 278.3060546875 353.05 278.2 352.9083984375 274.74921875 351.5 271.3 349.05 265.25 343.95 261.8 340.175 259.23828125 330.25 256.8 334.969921875 256.8849609375 337.8 256.85 342.4 256.85 344.75 255.7 345.85 255.2 347.35 254.05 350.7 251.55 353.2 249.15 354.7 247.85 355.15 246.75 355.5 245.9 355.5 244.7 355.5 244.6 355.35 242.6 355.2 239.55 355.1 238 355.05 237.2 354.75 235.25 354.45 233.6 353 228.8
L 351.8 225
Q 350.9 222.35 350.5 221.6 349.5 219.7 347.3 217.6 341.45 212.05 332.6 209.7 325.2 207.8 315.8 208.3 312.9 208.4 311.25 209.1 308.9 210.15 307.15 213 306.2 214.55 304.6 218.35
L 302.7 223.3
Q 302.3 224.65 301.25 229.3 300.3 234.15 300.15 235.4
L 300.5 235.35
Q 300.469140625 235.591796875 300.45 235.85 300.3 238.4 302.3 241.25 302.6541015625 241.78125 303.15 242.45 303.2896484375 242.848828125 303.4 243.2 303.5123046875 243.1193359375 303.6 243 304.5951171875 244.272265625 306.1 246 306.35 246.35 308.05 248.65 309.2 250.25 310.1 251.15 312.9 254.15 317.6 256.1 320.9 257.5 326.4 258.75 332.7 260.2 335.3 261.05 340.2 262.7 343.3 265.25 348.35 269.45 349.7 275.95 350 277.85 350 278.8 350.1 282.75 348.25 285.35 346.6 287.55 343.7 288.8 341.1 289.95 337.55 290.25 335.55 290.4 331.15 290.35 328.2 290.3 326.7 290.2 324.25 290.05 322.3 289.7 320.4 289.4 314.2 287.55 307.6 285.85 304.25 284.9 298.4 283.3 294.6 281.5 293.9 281.2 287.4 277.65 275.65 271.35 262.95 269.05 261.4 268.75 260.8 269.3 260.1 270 260.4 271.45 261.1 276.3 263.65 280.8 266.1 285.15 269.85 288.55 272.8 291.35 275.25 290.9 277.4 290.6 278.5 288.25 279.5 286.1 279.2 283.6 278.9 280.9 277.55 278.25 277.05 277.45 276.4 277 275.81640625 276.6353515625 275.35 276.75 275.3212890625 276.735546875 275.3 276.7 274.8 276.3 274.65 276.05 274.5900390625 275.930078125 274.55 275.75 276.806640625 276.552734375 279 277.5 279.0171875 278.2302734375 279.2 278.55
L 279.9 279.4
Q 280.05 279.7 280 280.35 280 281 280.1 281.3 280.2 281.55 280.65 282.1 280.8955078125 282.3763671875 281 282.6 281.0009765625 283.078515625 281.05 283.55 280.95 284 281 284.2 281.0775390625 284.4328125 281.3 284.7 281.687890625 285.87578125 282.55 287.6
L 283.55 289.7
Q 284.05 290.6 284.15 290.7 285.15 291.95 288.05 291.95 289.1 291.95 289.4 291.8 289.85 291.65 290.55 290.95 291.45 290.15 291.8 289.45 292 288.95 292.1 287.4 292.1 286.3 291.85 285.8 291.65 285.45 291.25 285.25 290.85 285.05 290.5 285.2 290.05 285.35 289.9 286 289.85 286.1 289.7 287.1 289.55 288.45 288.7 289.15 287.6 290.1 286.55 289.45 286 289.2 285.35 288.1
L 284.35 286.25 284 284.95
Q 283.8 284.35 283.6 284.1 283.1 283.55 282.9 283.2 282.86015625 283.1201171875 282.8 283 282.75 282.7537109375 282.75 282.35 282.8 281.65 282.75 281.45
L 282.3 280.55
Q 281.7837890625 279.7142578125 281.25 278.6 281.74140625 278.8154296875 282.2 279.05 283.5 279.7 287.6 282 290.95 283.85 293.05 284.8 294.4236328125 285.4146484375 296.3 286.1 296.120703125 286.35390625 295.8 286.55 295.4 286.8 295.35 286.9
L 295.25 287.4 295.25 288.45
Q 295.25 289 295.35 289.25 295.5 289.5 295.95 289.9 296.1677734375 290.148828125 296.25 290.65
L 296.25 291.65 297.25 292.2
Q 297.35 292.95 298 293.2 298.1884765625 293.2943359375 298.35 293.3 298.528515625 293.560546875 298.8 293.9 299.25 294.45 299.05 294.85 301 295.8 301.85 295.9
L 306.65 295.9
Q 307.2 295.9 307.45 295.8 307.85 295.65 308.4 294.9 309 293.9 309.1 293.25 309.2 292.15 308.5 291.65 308.15 291.35 307.65 291.4 307.15 291.5 306.95 291.9 306.8 292.7 306.6 293.1 306.25 293.75 305 293.75 303.7 293.85 303.1 293.85 302.6 293.95 302.1 293.8 301.5 293.65 300.55 292.6 299.95 291.9 299.85 291.45 299.85 290.8 299.75 290.5 299.6 290.05 298.75 289.2 297.95 288.45 298.05 287.9 297.7201171875 287.9 297.5 288.25 297.52734375 287.5875 297.5 287.15 297.487109375 286.8029296875 297.45 286.5 300.4287109375 287.505859375 304.5 288.65
L 305.3 288.85 305.25 290.65 306.5 290.9
Q 306.583984375 290.0046875 306.4 289.2
L 315.2 291.65
Q 319.2 292.85 321.9 293.25 323.7 293.45 326.2 293.5 327.65 293.55 330.5 293.55 332.3 293.6 335.9 293.7 339.05 293.75 341.25 293.4 347.55 292.4 350.5 288.45 351.95 286.45 352.65 283.3 352.8494140625 282.380078125 352.95 281.45 353.1435546875 281.58203125 353.35 281.7
L 357.7 284.6
Q 356.65 286.05 355.45 289.25 354.15 292.6 353.25 294 351.7 296.1 351 297.2 349.75 299.05 349.7 300.65 344.1 299.75 338.15 300.15 335.6 300.25 334.25 301 333.3 301.5 332.75 302.4 332.2 303.3 332.3 304.3 332.45 305.75 334.15 306.75 334.8 307.15 337.35 308.2 341.45 309.9 343.9 313.45
L 324.2 312.85
Q 322.65 312.85 322.2 313.35 321.7 313.85 321.7 315.15 321.6 318.5 322.65 319.85 323.55 321.15 326.15 322.05 334.7 325.1 343.8 324.85 342.25 326.05 341.45 326.5 340.1 327.25 338.85 327.3 337.75 327.35 335.9 326.65 333.85 325.9 332.9 325.85 331.25 325.75 329.9 326.75 328.5 327.75 328.45 329.3 328.4 330.75 329.5 332 330.5 333.1 332.05 333.8 334.5 334.95 337.9 335.35 339.2521484375 335.5189453125 341.55 335.6 341.2916015625 335.8939453125 341.1 336.25 340.6 337.1 340.05 338.95 339.5 340.3 338.1 341.5 337.3 342.25 335.45 343.45 330.75 346.7 327.7 347.8 325.1 348.7 321.7 349 319.5 349.2 315.5 349.2
L 309.75 349.15
Q 307.25 349.15 306 349.05 304.1 348.85 300.4 347.85
L 289.75 344.95
Q 285.85 343.9 284 343.25 280.85 342.2 278.5 340.9 277.05 340.2 276.6 340.15 276.1 340.05 275.6 340.3 275.1 340.6 274.95 341.05 274.5 342.1 276.2 343.25 278.65 345 282.15 346.25 284.3 347.05 288.6 348.2
L 301.2 351.6
Q 303.5 352.2 304.25 352.25 304.6275390625 352.3443359375 306.5 352.45 306.45 354.534375 306.45 358.15 306.45 361.05 306.95 362.4 307.45 364.05 308.65 364.8
L 310.6 365.7
Q 312 366.35 314.3 368.9 318.2 372.95 322.8 376 324.4 377 325.3 377.3 325.6 377.4 327.45 377.65 329.95 377.95 331.15 377.1 332.85 375.85 332.2 371.95 336.15 371.7 338.3 371.8 341.6 371.9 344.2 372.7 346.8 373.5 349.2 375.25 351.1 376.65 351.65 376.85 352.6 377.2 354.2 377.2
L 362.45 377.4
Q 363.65 375.55 362.35 372.95 361.7 371.65 360.4 370.25 359.7 369.5 357.95 367.9 356.9 366.9 350.35 360.25 348.25 358.15 347.05 357.3 345.35 356.05 341.65 354.6 337.75 353.05 336.15 352 334.85 351.15 334.65 351.05 333.8 350.6 333.05 350.55 332 350.55 331.2 351.25 332.2 351.75 334.75 353.5 339.6 356.75 345.05 358.45 344.9 359.35 346.1 359.85 347.4 360.4 347.7 360.85 347.75 360.95 347.95 361.4 348.1 361.8 348.25 361.95 348.55 362.2 349.4 362.45 349.75 362.65 349.95 363.15 350.1 363.45 350.3 364.1 350.8 365.05 352.55 366 354.45 367.05 355 367.8 355.2 368.05 355.55 368.75 355.9 369.4 356.15 369.7 356.45 370 357.55 370.8 359.35 372.25 359.65 374.4 355.45 374.8 353.6 374.3 352.2 373.9 350.1 372.55 347.6 370.9 346.75 370.5 345.1 369.8 342 369.3 337 368.55 331.95 368.7 330.55 368.8 330 369.2 329.3 369.85 329.5 371.5 329.75 373.5 329.5 374.15 328.05 374.6 326.5 374.1 325.15 373.75 323.2 372.15 320.05 369.6 317.25 366.65 314.45 363.65 313.1 362.8 311.9 362.2 311.3 361.85 310.25 361.25 309.8 360.55 309.05 359.45 309.25 357.15 309.45 354.6 309.15 353.6 308.9337890625 352.9873046875 308.5 352.5
L 311.6 352.6
Q 319.7 352.8 323.65 352.15 331.65 350.75 337.8 345.65 339.25 344.45 340.15 343.3 341.05 342.15 342.25 339.8 343.5451171875 337.3275390625 343.45 335.65 343.7380859375 335.6935546875 344 335.7 347.25 335.7 348.6 335.15 350.1 334.55 351.6 332.9 353.25 331 354.15 328.85 354.7 327.5 355.3 325.1 356 322.35 356.35 321.3 356.8 320.1 357.9 317.8 358.0216796875 317.55546875 358.15 317.3 358.2408203125 317.3609375 358.35 317.4 359.05 317.6 359.65 317.3 359.65 316.9 360.3 316.9 367.3 316.45 374.75 317.55 377.15 317.95 378.25 318.5 378.75 318.8 378.75 319.1
L 383.25 320.5
Q 387.8 321.85 390.1 323.2 391.15 323.8 393.25 325.05 394.25 325.55 396.35 326.35 397.8 327.05 400.4 329.05 402.95 331.05 404.4 331.75 405.6 332.3 406.4 332.3 406.9 332.25 407.35 331.95 407.85 331.6 407.95 331.15 408.1 330.7 407.9 330.1 407.85 329.95 407.45 329.05 407.1 328.25 406.7 326.65 405.3 320.95 404.5 318.8 403.6 316.3 402.05 313.2
L 398.4 305.5
Q 398.04140625 304.746875 397.7 304.1 398.5734375 304.2912109375 399.2 304.5 400.95 305.05 402.9 306.35 403.95 307.05 406.3 308.85
L 412.35 313.7
Q 412.594140625 313.1419921875 412.65 312.4 412.8130859375 312.451953125 412.95 312.5 417.25 313.95 422.85 314.75 426.4 315.2 433.05 315.65 433.45 315.7 433.75 315.5 434.1 315.35 433.95 315.05 426.15 314.15 422.25 313.65 416.5162109375 312.907421875 412.7 311.25 412.6908203125 310.24375 412.45 309 410.85 300.55 406.5 293.05
L 401.55 285.3
Q 401.4888671875 285.2009765625 401.4 285.1 408.0349609375 286.108984375 414.5 288.1 415.05 287.25 414.5 286.05 414.25 285.45 413.2 284 412.55 282.95 412 281.45
M 331.55 212.1
Q 335.2 213.05 338.2 214.7 340.3 215.85 343 217.85 344.6 219.05 345.4 219.85 347.4 221.9 348.9 226.3 350.25 230.15 352 237.7 353 241.85 352.2 243.95 351.75 245.25 350.5 246.45 349.8 247.15 348.1 248.45 345.55 250.25 344.3 251 342.1 252.25 340.15 252.65 339 252.85 336.65 252.95 325.95 253.15 320.65 252.35 317.45 251.9 315.5 250.85 314.05 250.05 311.25 247.25 308.8 244.7 307.8 243.35 306.05 241.05 305.4 238.85 305.15 237.95 304.75 235.25 304.45 232.95 303.9 231.7 303.6546875 232.2265625 303.45 232.75 303.3705078125 232.6205078125 303.25 232.5 302.95078125 232.4869140625 302.65 232.55 302.805078125 232.0142578125 302.9 231.35 304.2 223.05 308.35 215.7 310.7 211.4 313.55 211.3 314.55 211.3 314.55 210.75 323.25 209.7 331.55 212.1
M 274.95 279.9
Q 275.412109375 281.22734375 276.1 283.4 276.65 285.95 275.45 287.4 273.15 288.15 270.25 284.6 267.45 281.15 266.25 279.15 264.3 275.95 263.85 273 268.68984375 273.80234375 273.25 275.3
L 273.25 277.7 274.3 278.2
Q 274.0748046875 278.9658203125 274.95 279.9
M 321.85 234.05
Q 322.3 232.45 321.8 230.8 321.35 229.2 320.15 228 317.65 225.6 314.05 226 312.25 226.35 312.3 227.45 309.6 227.75 308.55 228.85 308 229.4 307.55 230.5 306.45 232.95 306.7 234.5 306.9 235.85 307.95 236.95 308.9 238 310.25 238.6 312.25 239.4 315.85 239.4 317.1 239.4 317.7 239.25 319.5 238.7 320.95 236.1 321.55 235.15 321.85 234.05
M 318.2 230.75
Q 318 230.95 318.1 231.85 318.2 232.7 317.5 233.3 316.85 233.95 316 233.75 315.6 233.6 314.45 232.7 313.5 231.9 312.25 231.5 311.35 231.15 310.55 231.3 310.456640625 231.309375 310.35 231.3 310.8158203125 230.8298828125 311.85 230.6 313.8 230.25 315.8 230.15 316.55 230.15 316.8 230.4 316.95 230.35 317.2 230 317.45 229.7 317.65 229.7 317.75 229.7 318.1 229.95
L 318.7 230.6
Q 318.3716796875 230.5783203125 318.2 230.75
M 309.05 233.85
Q 309.1302734375 234.146875 309.25 234.45 309.078515625 234.257421875 309.05 234 309.0388671875 233.921484375 309.05 233.85
M 144.3 315.2
Q 146.6 315.45 151 314.85 152.6 314.55 153.05 314.05 151.4 313.55 148.6 313.8 145 314.15 144 314.1 142.05 314 138.7 312.85
L 128.45 309.5
Q 126.25 308.75 125.15 309.35
L 138.8 313.8
Q 142.4 315 144.3 315.2
M 75.9 315.05
Q 72.85 314.35 71.3 314 68.95 313.55 64.25 313.25
L 55.35 312.75
Q 55 312.7 54.65 312.95 54.35 313.15 54.55 313.4 57.3 314 63.4 314.25 69.25 314.45 72.25 315.2 72.8 315.35 74.95 316 76.55 316.5 77.6 316.65 79.15 316.9 83.1 316.8
L 93.35 316.35
Q 96.3 316.3 99.3 316.05
L 115.4 314.65
Q 119.4 314.25 121 313.6 124.1 312.4 125.05 309.75 122.55 312.3 119.1 313 118.2 313.2 115.45 313.3
L 105.35 313.55
Q 102.9 313.65 102.25 313.8 99.45 314.7 98 315 96.75 315.2 95.05 315.2
L 82.95 315.4
Q 78.5 315.5 75.9 315.05
M 51 313
Q 49.65 312 46.4 311.9
L 37.8 311.7
Q 35 311.75 28.3 312.7 27.9 312.75 27.65 313 27.35 313.25 27.55 313.5 29.85 313.55 32.95 313.4 34.75 313.35 38.35 313.1 45.75 312.6 49.85 313.5 50.25 313.65 50.65 313.5 51.1 313.35 51 313
M 26.05 312.9
Q 24.5 312.65 22.2 312.9 19.65 313.2 18.35 313.3 17.05 313.4 14.45 313.4
L 13 313.3
Q 12.45 313.25 11.55 312.95
L 6.8 311.6 6.55 312.35
Q 11.2 314.35 16.35 314.6 17.6 314.7 18.8 314.6 20.3 314.55 23.2 314.05
L 25 313.75
Q 26.15 313.65 26.05 312.9
M 548.95 120.95
L 547.7 120.7 547.75 120.9
Q 547.5 120.9 547.25 121.15
L 545.4 123.05
Q 545.10546875 123.7373046875 545.45 124.35 535.923046875 130.7212890625 523.2 136.5 514.35 140.5 498.95 146.3 490.65 149.45 485.9 150.5 478.55 152.2 472.55 151.25 470 150.85 466.3 149.7 462.25 148.3 460.15 147.7 449.95 144.75 439.15 145.9 428.35 147.05 419 152.1 414.4 154.6 409.15 158.65 406.2 160.95 400.05 166.2 394.8 170.7 392.2 173.3 388 177.45 385.4 181.35 382.3 186 381.05 191 379.65 196.45 380.8 201.4 381.8 190.25 386.05 183.45 387.75 180.7 390.55 177.75 392.15 176.1 395.85 172.7 402.75 166.4 406.45 163.45 417.4 154.7 428.9 150.7 442.05 146.15 453.9 148.5 456.15 148.95 460.5 150.2 464.85 151.45 467.05 151.9 477.9 154.05 491.35 150.45 499.95 148.1 514.8 141.5
L 535.25 132.4
Q 539.4 130.55 541.55 129.1 544.5517578125 127.021875 545.85 124.4 545.9201171875 124.4033203125 546 124.35
L 546.3 123.9 547.2 122.9
Q 547.2 122.4 547.25 122.2 547.45 122.05 548 121.95
L 548.75 121.65
Q 549.1 121.3 548.95 120.95
M 223.9 346.3
Q 225.4 346.35 228.75 346.15 232.26796875 345.90546875 235.75 345.75 234.580078125 346.616796875 231.4 348.9 228.45 351.05 226.55 352.25 222.9 354.6 217.9 356.95 215.35 358.15 208.85 360.95 205.45 362.5 204.35 363.8 202.35 366.15 202.6 370.2 202.7 371.75 203.3 372.55 204.3 373.95 207.5 374.05 210.1 374.15 211.4 374 212.55 373.85 215.5 372.85 219.45 371.6 227.65 370
L 227.8 374.6
Q 227.8 375.5 228.15 375.9 228.55 376.2 229.4 376.2 234.6 376.2 236.6 375.95 239.8 375.5 244.5 373.85 253.6 370.55 261.45 365.55 264.45 363.6 265.5 361.85 265.95 360.95 266.3 359.65 266.6 358.45 266.9 356.05 267.1224609375 353.425390625 267 347.5 273.149609375 348.0443359375 279.8 347.95 281.75 347.95 282.55 347.45
L 282.25 346.7
Q 279.797265625 346.5998046875 277.35 346.5 277.4658203125 346.3822265625 277.55 346.2
L 272.9 343.1
Q 268.1 339.9 265.15 339.1 262.85 338.5 257.95 338.7
L 252.25 338.85
Q 249.45 338.95 249.2 340.5 250.6 341.5 252.75 341.65 253.9 341.75 256.65 341.6 266.6 341.05 272.3 345.4 273.1763671875 346.0517578125 273.75 346.45 270.6423828125 346.4 267.5 346.4
L 267.3 345.95 266.95 345.9
Q 266.937109375 345.026171875 266.65 344.5 266.45 344.15 266.1 344 265.75 343.8 265.4 343.95 264.75 344.25 264.75 345.55
L 264.75 345.7 264.5 345.7
Q 263.95 345.7 263.75 345.8 263.3 346.05 263.55 346.4
L 264.75 346.6 264.8 349.9
Q 264.9 355.05 264.2 357.85 263.65 359.75 262.7 361.4
L 252.4 367.1
Q 245.85 370.8 241.75 372.3 235.3 374.55 230.05 373.75 229.75 373.1 229.9 372.05 230.1 370.9 230.15 370.3 230.45 367.9 229.05 367.25 228.45 367 226.85 367.3
L 211.8 371.45
Q 209.1 372.15 207.75 371.95 206.7 371.8 205.85 371.1 205 370.4 204.85 369.4 204.5 367.4 207.5 365.35 210.7 363.2 217.65 360.1 224.7 356.95 227.85 354.9 229.35 353.95 232.85 351.2
L 237.65 347.4
Q 238.816796875 346.4392578125 239.15 345.65 250.41171875 345.33125 261.5 346.05 263.65 346.15 264 345.1 243.55 342.75 223 344.05 220.1 344.25 219.2 345.45 221.2 346.2 223.9 346.3
M 210.1 347.75
Q 208.25 349.2 205.6 352.05 204.65 352.95 204.2 353.8 203.65 355 204.3 355.9 205.9 356.3 208.95 355 216.8 351.55 222.35 350 224.9 349.25 225.05 348 219.05 348.55 213.7 351.1 211.95 351.95 211.05 352.3 209.5 352.95 208.3 353 208.6 351.9 209.8 350.85 211.3 349.75 212 349.15 214.8 347.05 216.2 343.7
L 211.55 346.65 210.1 347.75
M 210.3 335.3
Q 210.9 334.95 211.9 334.65 212.5 334.5 213.6 334.2 215.75 333.45 216 331.9 214.1 330.8 210.4 333
L 206.55 335.35
Q 205.55 335.9 205.7 336.55 202 339.25 199.3 342.5 198.5 343.65 199.05 344.1
L 206.15 343.5
Q 208.2 343.3 209.35 343.4 211.1 343.5 212.35 344.2 213.15 344.65 213.4 344.65 213.7 344.65 213.95 344.45 214.15 344.2 214.05 343.95 212.65 343.55 211.8 342.6 212.8 342.4 213.2 342.1 213.5 341.85 213.6 341.45 213.75 341.05 213.55 340.75 213.35 340.5 212.45 340.25 210.45 340.05 210 340.9
L 204.55 341.2
Q 204.45 340.55 205.1 339.95 205.25 339.8 206.4 339 207.1 338.55 208.35 337.1 209.5 335.75 210.3 335.3
M 199.45 165.95
Q 200.9 166.95 202.25 169.1 203.4 170.85 204.4 173.2 205.4 175.75 206.6 181.05
L 208.1 187.7 209 188.35
Q 212.0388671875 193.9453125 214.8 198.75 213.7595703125 198.4021484375 212.45 198.1 210 197.45 207.2 197.05 198 195.6 188.9 196.5 184.35 196.95 178.45 198.15 175.55 198.65 173.15 199.25 168.6 200.45 163.9 202.85 162.85 203.5 162.75 204.1 162.7 205.05 164.35 205.7 168.6 207.35 174.75 211.2 176.1888671875 212.109375 177.4 212.9 175.123828125 212.9111328125 173.25 213.55 172 214 169.2 215.7 161.05 220.9 153.4 227.1 152.4 227.95 151.95 228.9 151.4 230.05 152.1 230.75
L 174.25 235.15
Q 174.0333984375 235.305859375 173.8 235.45 161.85 243.5 153.4 254.7 152.55 255.9 152.8 256.55 153.2 257.35 154.5 257.35 156.45 257.45 158.95 256.7 160.1 256.3 163.2 255.05 170.7255859375 252.0662109375 178.55 250.8 178.04375 251.3423828125 177.5 252
L 163.8 268.5
Q 162.6 269.9 162.6 270.85 162.55 271.8 163.3 272.5 164 273.2 165 273.4 166.15 273.65 168.75 273 169.8220703125 272.725390625 170.9 272.45 166.823828125 277.9212890625 161.75 282.8 154.5 289.7 154.3 289.95 150.3 294.2 148.9 298.4 148.05 300.9 149.3 301.85 149.9 302.3 151.55 302.3
L 163.8 301.8
Q 162.1130859375 303.9935546875 160.75 306.95 159.6 309.3 159 311.55
L 157.95 316.6
Q 157.5 320.05 157.95 324.95 159 325.2 160.4 325.05 161.2 324.95 162.8 324.55 167.9 323.35 170.15 322.3 170.8 322.05 172.55 321.15 174.05 320.4 175 320.05 175.966796875 319.727734375 177.85 319.3 176.546875 320.608984375 174.1 323.15 169.55 327.4 162.2 329.75 157.15 331.4 148.5 332.6 120.00546875 336.7216796875 90.95 338.05 90.9931640625 338.00703125 91.05 337.95
L 88.8 337.7 88.55 337.95 88.55 338.15
Q 74.0138671875 338.7810546875 59.35 338.7 55.25 338.65 52.95 339.05 49.5 339.7 47.45 341.65 46.6 342.5 46.2 343.5 45.75 344.65 46.15 345.6 46.6 346.55 47.8 347.1 48.55 347.45 50.1 347.75
L 80.9 352.95
Q 95.15 355.35 102.5 355.95 110.15 356.55 121.2 356.35 127.45 356.2 139.95 355.85 145.85 355.75 157.7 355.55 167.85 355.1 175.2 353.15 184.35 350.7 191.2 345.45 198.11640625 340.1716796875 201.15 333.15 201.7767578125 332.8814453125 202.5 332.55
L 216.5 326.1
Q 216.6515625 326.4826171875 216.9 326.7
L 217.4 327.15
Q 217.7 327.45 217.9 328.3 218.1 329.45 217.9 329.85 217.8 330.1 217.2 330.8 216.8 331.3 216.75 331.95 216.7 332.65 217.05 333.15
L 218.5 333.4
Q 219.5 331.65 219.75 330.35 220.05 328.4 218.85 327.35 218.3 326.9 218.25 326.7
L 218.25 326.25
Q 218.25 326.15 217.75 325.8 217.649609375 325.7271484375 217.55 325.6
L 222.85 323.15
Q 223.040234375 323.641796875 223.25 324.1 224.2 326 225 326.9 225.8 327.75 228 329.25 230.15 330.6 231.25 330.9 232.4 331.25 234.4 331.25
L 240.2 331.45
Q 241.55 331.45 242.1 331.1 243.05 330.55 243.25 329.05 243.45 327.55 242.75 326.1 242.1 324.7 240.8 323.85 240.1 323.4 237.7 322.65 235.7 322 234.85 321.15 234.6951171875 320.9794921875 234.55 320.75
L 239.45 321.95
Q 242.6 322.7 244.55 322.8 247.4 322.9 249.4 321.75
L 251.45 319.9
Q 252.4 317.85 251.3 315.65 250.2 313.4 248.05 312.85 247.2 312.65 243.95 312.85 241.4 313 240.2 312.05 239.2 311.25 238.55 309.35 237.75 307.35 237.85 305.95 238.05 303.85 239.6 303.1 240.3 302.8 241.55 302.8 246.75 302.5 249.75 303.75 251.1 304.3 251.6 304.4 252.65 304.6 253.3 304.1 253.8 303.75 254.1 302.65 255.3 299 255.05 296.5 254.7 292.9 252.2 291.2 251 290.4 247.75 289.75 242.5 288.8 239.2 288.7 237.5 288.65 237.15 288.6 236 288.45 235.2 288 234.25 287.45 233.2 285.8 230.65 281.9 229.2 277.9
L 232.95 276.1
Q 234.45 275.4 235.05 274.75 235.65 274.15 236.2 272.9 236.9 271.2 237.1 270.85 237.85 269.55 238 269.2 238.3 268.2 237.8 267.65 237.45 267.25 236.8 267.25 236.2 267.25 235.75 267.65 235.15 268.1 234.55 269.5 233.65 271.8 232.8 272.65 232.1 273.3 230.8 273.8 229.3 274.3 228.55 274.55 227.3 275.05 226.55 275.9 225.65 276.85 225.75 277.95 225.8 278.6 226.25 279.35 226.45 279.6 227.2 280.55 228.1 281.75 229.75 285.2 231.25 288.25 232.55 289.65 233.65 290.85 234.75 291.1 235.35 291.3 236.55 291.3 240.45 291.35 248.25 292.55 249.5 292.75 250.05 293.05 251.05 293.6 252.1 295.7 252.85 297 252.9 298 252.95 299.3 251.5 301.45 248.4 300.35 243.55 300 238.95 299.6 237.05 301.45 234.95 303.55 236 308.9
L 236.5 311.3
Q 236.8 312.55 237.2 313.2 237.9 314.15 239.45 314.7 240.85 315.2 242.75 315.3 244 315.4 246.15 315.3 247.95 315.3 248.55 315.55 249.95 316 250.05 317.3 250.05 318.25 249.15 319.05 247.8 320.4 245.8 320.8 245 320.95 243.4 320.95 238.35 320.65 234.1 318.25 233.18125 317.7650390625 232.4 317.15 231.2369140625 315.66328125 229.45 314.75 229.2 317.85 230.8 320.65 232.4 323.5 235.15 324.85 236.2 325.35 238.4 326.25 240.2 327.1 240.9 328.35 237.85 328.55 236.3 328.6 233.55 328.75 231.8 328.2 228.4 327.1 226 323.2 225.579296875 322.544140625 225.2 321.85 225.527734375 321.499609375 225.55 321.1 225.55 320.6 225.05 320.2 224.7359375 319.9556640625 224.35 319.85 223.8890625 318.6421875 223.6 317.3 223 314.6 223 310.5 223 306.35 222.9 305.2 222.55 302 220.55 296 219.7 293.55 219.2 292.35 217.7400390625 288.7001953125 215.5 285.5 215.6400390625 285.5384765625 215.75 285.55 216.2 285.3 216.2 284.65 216.2 284 215.75 283.6 215.15703125 283.105859375 213.6 283 212.8283203125 282.1048828125 212 281.25 209.8 278.95 209.25 278.15 207.95 276.25 208.1 274.5 208.25 272.6 210.25 270.65 212.8 268.6 213.9 267.5 214.6 266.8 215.6 265.45 216.8 263.85 217.2 263.35 219.35 260.8 221.6 260.55 221.35 259.65 220.3 259.35 219.3 259.1 218.4 259.55 217.6 259.9 216.9 260.7 216.65 260.95 215.65 262.2 214.55 263.45 212.4 265.25 209.85 267.35 209 268.15 205 272.05 205.6 276 205.85 277.75 207.2 279.6 208 280.7 209.9 282.6 209.999609375 282.7021484375 210.1 282.8 208.1431640625 282.7220703125 206.8 282.75 203.1 282.85 200.2 283.7 198.1 284.3 193.55 286.55
L 183.1 291.9
Q 187.3 279.4 196.85 270.4 199.25 268.15 199.9 267.45 201.55 265.6 202.05 263.85 200.25 263.65 197.85 266.05 193.05 270.8 190.65 273.5 186.8 277.8 184.35 281.75 179.75 289.25 180.7 295.35 183.25 295.5 186.35 293.9 186.6 293.8 191.55 290.8 196.95 287.6 203.2 286.25 207.805859375 285.2630859375 212.35 285.35 214.132421875 287.4646484375 215 289.2 215.65 290.5 216.4 292.65
L 219.6 301.8
Q 220.25 303.6 220.4 304.35 220.8 306.05 220.8 308.65 220.75 310.1 220.7 313 220.7677734375 316.902734375 221.9 320.6 209.633203125 327.8048828125 196.1 331.8 195.35 324.5 198.7 318 199.5 316.5 202.05 312.55 202.452734375 311.9369140625 202.8 311.35 205.0525390625 310.86640625 206.55 310.7 209.3 310.35 211.1 310.75 212.1 311.05 212.55 311.05 213.35 311.1 213.8 310.65 214 309.85 212.9 309.2 211.3 308.25 208.4 308.25 206.706640625 308.296484375 204.3 308.7 204.8263671875 307.7908203125 205.15 307
L 203.75 306.65
Q 202.698828125 308.055078125 201.8 309.25 200.0328125 309.66796875 197.95 310.25 189.85 312.45 186 314.05 183.95 314.95 182.9 315.4 181.1 316.15 179.75 316.5 177 317.05 175.65 317.45 174.6 317.75 173.2 318.45 171.6 319.25 170.8 319.6 167.25 321.25 160.05 322.9 159.7 319.35 160.85 314.2 161.5 311.35 162.25 309.55 162.85 308.05 164.1 305.9 164.9 304.4 165.5 303.8 166.4 303 166.6 302.75 166.9279296875 302.119140625 167.2 301.65 172.52265625 301.575 175 302.65 177.6 303.7 178.35 302.8 178.75 302.3 178.6 301.6 178.4 300.95 177.9 300.5 177.2 299.95 175.45 299.75 172.6646484375 299.4134765625 169.85 299.2 170.3193359375 298.7916015625 170.5 298.4
L 169.95 296.8
Q 168.0537109375 297.622265625 166.4 299 158.9560546875 298.753125 151.55 299.5 153.2 294.45 159.35 288.7 167.7 280.85 169.15 279 171.75 275.2 173.15 273.4 173.8875 272.43203125 174.65 271.65 184.0810546875 269.7544921875 193.75 269.45 194.25 269.15 194.2 268.5 194.15 267.85 193.65 267.45 193 266.9 191.4 266.9 178.75 266.85 166.9 270.9 172.5 262.6 178.95 254.6 181.1 251.9 182.75 251.25 183.8 250.8 186.75 250.5 189.35 250.3 190.55 249.4 190.2 248.3 188.05 248.1 185.3580078125 247.744921875 183.5 247.95 178.3623046875 247.344921875 171.15 249.55 162.45 252.7 158 253.7 158.8 251.75 160.55 249.85 161.6 248.65 163.95 246.55 168.15 242.8 170.35 241.1 174.05 238.25 177.45 236.7 177.796484375 236.353515625 177.7 235.85
L 179.4 236.2
Q 179.65 235.75 179.45 235.15 179.3 234.6 178.85 234.25 178.2 233.75 176.8 233.45
L 155.75 228.9
Q 157.15 227.1 159.4 225.35 160.75 224.3 163.6 222.45
L 167.65 219.85
Q 170.65 217.8 172.55 217 175.25 215.8 178.9 215.3 179.79296875 215.1859375 180.95 215.1 183.782421875 216.814453125 184.8 217.35 186.75 218.45 188.2 218.35 189.15 218.25 189.75 217.5 190.45 216.75 190.25 215.9 188.43984375 216.410546875 185.45 214.85 185.5080078125 214.8513671875 185.55 214.85 185.45 213.75 183.4 213.4 183.0537109375 213.3474609375 182.7 213.3 175.311328125 209.0197265625 168.2 204.25 171.2 202.35 175.4 201.25 178.35 200.45 183.15 199.8
L 188.5 199.15
Q 196.7 198.25 202.3 198.55 204.8 198.75 206.05 198.95 208.8 199.3 213.1 200.3 214.9337890625 200.774609375 216.25 201.1 216.9130859375 202.0119140625 217.5 202.65 219.2 204.35 221.1 204.55 220.55 203.55 219.55 203 219.069921875 202.31796875 218.6 201.6 218.7892578125 201.669921875 218.95 201.7 219.4 201.75 219.8 201.55 220.2 201.3 220 200.95 219.1 200.75 217.85 200.15 217.662109375 200.0525390625 217.45 199.95 213.42734375 193.785546875 210.3 187.25 208.65 183.85 208 181.5 207.75 180.5 207.1 177.15 206.6 174.45 206.05 172.9 205.2 170.65 203.15 167.7 201.55 165.25 200.25 164.5 199.75 164.2 198.8 163.9 197.6 163.45 197.35 163.35 195.8 162.75 194.1 161.55 193.3 161 191.1 159.25 176.8 147.95 159.5 141 156.5919921875 139.83671875 154.3 139.2 153.7068359375 138.883984375 152.6 138.8 152.173046875 138.7134765625 151.75 138.65 151.4677734375 138.590625 151.25 138.6 146.8888671875 137.8212890625 139.2 135.1 130.55 132 125.8 131.6 125.3 131.55 124.9 131.75 124.646484375 131.8513671875 124.55 132 124.483203125 131.883203125 124.45 131.85 124.2 131.45 123.6 131.15 122.65 130.65 120.65 130.1
L 118.4 129.5
Q 116.75 129.05 115.65 128.7 114.75 128.4 114.3 128.1 113.55 127.65 113.35 126.95 113.3 126.95 113.25 127 113.15 127.05 113.15 127.15
L 113.15 127.2 110.7 124.55
Q 109.75 123.5 109.45 122.95 109.15 122.35 109 121.7 108.9 121.15 108.9 120.25 108.95 119.1 108.9 118.85 109.2 119.05 109.55 118.95 109.3 118.65 109.15 118.5 109 118.45 108.85 118.45 108.65 118.45 108.55 118.55 108.45 118.7 108.45 118.95 108.4 120.25 108.4 120.95 108.5 122.05 108.85 122.85 109.1 123.5 109.65 124.2 109.9 124.55 110.65 125.35
L 113.5 128.45
Q 113.65 128.65 113.9 128.7 114.15 128.8 114.2 128.65 114.3 128.5 114.2 128.35 114.85 128.7 115.55 128.9 115.9 129.05 115.95 129.2 116.25 129.2 116.6 129.3 116.65 129.3 117.25 129.55 117.7 129.75 118.4 129.95
L 121.75 131
Q 122.6 131.3 123 131.5 123.9 131.95 124.25 132.9 123.45 133.4 122.95 133.65 122.15 133.95 121.5 133.85 121.05 133.8 120.55 133.55 120.3 133.45 119.7 133.05
L 119 132.6
Q 118.65 132.35 118.4 132.2 118.15 132.15 117.85 132.1
L 117.25 132.05
Q 116.75 131.95 116 131.65 115.1 131.3 114.75 131.2 114.45 131.1 114.2 131.15 113.9 131.2 113.85 131.4 113.75 131.65 113.9 131.9 113.95 131.9 114.3 132.3 114.7 132.75 114.7 133.4 114.5 133.4 114 133.5 113.55 133.65 113.35 133.6 113.1 133.5 112.85 133.15 112.15 132.35 111.8 132
L 109.9 130.15
Q 109.8 130.05 109.7 130 109.6 130 109.55 130.05 109.45 130 109.35 129.85 109.2 129.55 109.1 129.45 108.95 129.25 108.6 128.95
L 107.8 128.25
Q 106.05 126.7 105.2 125.9 103.85 124.5 103.05 123.2 102.7 122.65 102.55 122.45 102.2 122.05 101.85 121.95 102.3 123.15 103.25 124.1
L 103.35 124.4
Q 104.55 125.95 106.1 127.3 107.75 128.7 107.8 128.75 108.75 129.65 109.15 130.5
L 109.45 130.55
Q 109.55 131 110 131.45 110.15 131.6 110.8 132.15 111.75 133 112.4 133.9 112.65 134.25 112.8 134.3 113 134.45 113.45 134.45 113.95 134.4 114.15 134.45 114.1 134.3 114.35 134.25 114.95 134.15 115.1 134.05 115.55 133.9 115.6 133.55 115.4 133.35 115.3 133.1 115.25 132.8 115.3 132.55 115.6 132.45 116 132.6 116.2 132.7 116.65 132.85 116.8 132.9 117.25 132.95 117.65 133 117.85 133.05 118.2 133.2 118.8 133.6 121.05 135.05 122.95 134.7
L 123.7 134.35
Q 124.65 133.9 125.05 133.5 125.3 133.25 125.3 133.05 125.3 132.9 125.15 132.7 124.9 132.55 124.8 132.4
L 124.75 132.35
Q 129.4861328125 132.6701171875 137.4 135.65 146.25 138.95 150.25 139.5 152 139.75 152.7 140.05 154 140.5 154.55 141.45 155.1 141.25 155.15 140.6 174.7732421875 147.7353515625 191.25 160.8 194.85 163.65 196.7 164.6 197.6 165.05 199.45 165.95
M 234.25 319.9
L 234.25 320.35
Q 234.10078125 320.1181640625 233.95 319.85 234.0986328125 319.9 234.25 319.9
M 48.6 345.4
Q 49.8 341.85 56.75 341.85 65.5857421875 341.8380859375 74.4 341.6 74.6568359375 341.873046875 74.9 342.1 75.7 342.85 75.95 343.15 76.45 343.8 76.3 344.4
L 77.25 344.9 77.3 347.65 78.25 348.2 78.25 349.7 79.55 349.65
Q 79.5 349.35 79.55 348.15 79.55 347.25 79.25 346.75
L 78.7 346.05
Q 78.55 345.75 78.5 345.15 78.5 344.5 78.4 344.25 78.3 343.95 77.85 343.4
L 76.3 341.55
Q 83.6583984375 341.3365234375 91 340.95 91.8017578125 341.8185546875 92.25 341.9 92.3 342.75 93.4 344.75 94.3 346.6 94 347.65 95.55 348.2 96.05 347.45 95.75 347.1 95.8 346.35 95.8 345.45 95.7 345.15 95.6 344.85 95.25 344.45 94.8 343.9 94.75 343.8 94.65 343.65 94.4 343.05 93.7 341.7 93 340.9
L 92.95 340.85
Q 99.7353515625 340.517578125 106.5 340
L 106.55 340.4
Q 109.2 341.9 111.4 343.9 112.35 344.75 112.75 345.4 113.15 346.2 113.4 347.3
L 113.75 348.75
Q 114.1 349.85 114.3 350.1 115.05 351.3 116.45 351.1 117.35 350.45 116.75 349.05 115.9 347.85 115.55 347.2 115.3 346.75 115 345.5 114.7 344.4 114.35 343.85 113.85 343.05 112.2 342.15 109.545703125 340.675390625 108.1 339.9 119.5513671875 339.065625 131 337.85 145 336.4 154.25 334.55 165 332.35 170.9 328.7 177.3572265625 324.8171875 181.1 318.4 182.2802734375 318.002734375 183.65 317.45 185.25 316.8 188.45 315.5 190.65 314.7 195.05 313.4 197.6294921875 312.6490234375 199.75 312.1 198.221875 314.2302734375 197.6 315.25 194.5 320.35 194 324.9 193.9 325.85 193.8 327.8 193.65 329.5 193.3 330.65 192.9 331.8 192.85 332.25 192.7 333.2 193.15 333.75 193.55 334.2 194.6 334.4 195.551171875 334.55859375 196.6 334.45 194.40859375 337.6349609375 192.7 339.6 189.95 342.85 187.1 344.95 181.35 349.25 172.4 350.9 166.75 351.95 156.05 352.3
L 124 353.25
Q 108.45 353.75 100.7 353.15 94.05 352.65 82.4 350.75
L 48.6 345.4
M 172.7 331.45
Q 173.05 331.3 173.2 330.9 173.35 330.55 173.25 330.2
L 174.25 329.95
Q 174.6 330.4 175.35 330.8 175.8 331 176.7 331.35 177.9 332 179.2 333.7 180.1 334.95 180.75 335.4 181.85 336.25 182.95 335.95 183.6 335.65 183.75 335.2 182.7 333.45 180.1 331.6 179.25 330.9 178.45 330.45 177.5 329.75 176.6 329.25 174.5 328.3 172.3 328.85 172 330.25 172.7 331.45
M 161.25 337.9
Q 161.35 337.55 161.25 337.2 161.6 337.25 162.7 337.15 163.6 337.1 164.1 337.25 164.7 337.45 165.45 338
L 168.25 339.95
Q 170.6 341.85 171.8 343.25 173.4 345.1 174.5 344.9 175.1 344.2 174.55 343.2 174.3 342.75 173.2 342 172.6 341.55 169.85 339.05 167.85 337.25 166.3 336.5 163.95 335.45 161.4 335.75 160.85 335.85 160.65 336.05 160.5 336.2 160.4 336.65 160.05 338.1 160.8 338.4 161.1 338.25 161.25 337.9
M 146.7 338.65
Q 144.95 337.65 143.4 337.7 142.65 337.7 142.4 338.1 142.15 338.5 142.55 339.45 143.2 338.85 144.45 339.15 146 339.5 147.3 340.65 148 341.3 149.25 342.75 149.75 343.25 150.8 344.15 151.7 345 151.95 345.8 152.05 346.1 152.1 346.65 152.2 347.1 152.4 347.35 152.9 348.05 154.5 348.15 154.9 347.55 154.5 346.65 154 345.75 153.85 345.25 153.6 344.15 153.5 344.05 153.35 343.8 152.85 343.6 152.3 343.35 152.15 343.2 152.1 343.15 151.35 342.1 150.95 341.45 149.7 340.65 147.25 338.95 146.7 338.65
M 132.8 343.95
Q 133 342.6 131.1 341.55 128.15 339.9 124.8 339.65
L 124.5 340.4
Q 125.75 340.55 127.65 341.7
L 129.95 342.95
Q 130.65 343.4 130.8 343.65 130.9 343.8 131.15 344.65 131.5 345.65 133.05 347.05 133.3 347.35 133.75 348.15 134.15 348.85 134.5 349.2 134.95 349.7 135.6 349.85 136.3 350 136.8 349.6 136.6 348.35 135.4 346.25 134.1 344 132.8 343.95
M 312.75 327.85
L 311.45 326.7
Q 310.35 325.95 307.8 325.95 307.5 326.1 305.95 327.3 305 328.05 304.7 328.7 304.45 329.35 304.55 331.05 304.55 332.4 304.6 332.85 304.75 333.8 305.35 334.3 306 334.9 308.25 334.65 308.8 334.65 309.85 334.6 310.75 334.55 311.4 334.4 313.3 333.9 313.8 332.6 313.95 332.3 314.05 330.65 314.05 329.4 313.85 329 313.75 328.7 312.75 327.85
M 307.3 330.9
Q 307.2 330.05 307.35 329.7
L 307.55 329.35
Q 308 328.95 309.25 328.5
L 309.65 328.45
Q 309.95 328.55 310.1 328.75
L 311.75 330.45
Q 311.55 330.65 311.25 331.15
L 310.9 331.2
Q 309.05 331.2 307.3 330.9
M 410.1 251.1
Q 410 250.25 409.55 249.5 408.95 248.6 407.15 247.3 403.1 244.55 394.7 239.45 389.2 236.1 386.25 234.7 381.35 232.35 377.1 231.7 376.45 231.6 375.95 231.85 375.35 232.05 375.4 232.55 385 235.65 393.4 241.05 395.2 242.2 399.2 245 402.95 247.6 405.05 248.9 402.15 248.5 399.3 249.3 396.4 250.1 394.15 251.95 393.65 252.35 391.75 254.15 390.3 255.55 389.2 256.2 387.85 257 387.9 257.7 387.95 258.2 388.5 258.45 389.05 258.7 389.55 258.5 390.15 258.25 391.1 257.1 394.1 253.2 398.15 252.05 400.65 251.3 403.9 251.6 405.95 251.8 409.7 252.65 410.15 252 410.1 251.1
M 335.3 277.2
L 335.8 277.95
Q 335.05 278.25 334 278.9
L 334.25 279.7 336.25 279.85
Q 336.65 279.95 337 279.85 337.4 279.85 337.6 279.55
L 337.75 279.1
Q 337.9 278.45 337.4 277.85 337.2 277.6 336.7 277.3 336.2 277 336 276.95 335.55 276.85 335.3 277.2
M 327.7 275.2
Q 327.65 275 327.4 274.9 326 273.7 324.8 273.7
L 324.8 273.9 324.25 273.95
Q 324.4 274.65 324.2 275.6 323.85 277.15 324.3 277.65 325.5 277.95 326.1 277.8 326.55 277.65 326.9 277.3 327.8 276.5 327.8 275.6 327.8 275.35 327.7 275.2
M 312.35 262.75
Q 310.55 264.25 309.05 266.05 308.6 266.5 308.4 266.9 308.35 267.15 308.2 268.25 308.2 269.9 308.75 270.45 309.3 270.2 309.3 269.25 309.25 268.75 309.25 268.55 309.25 268.15 309.35 267.85 309.5 267.5 309.9 267.05 311.45 265.5 313.5 264.9
L 313.55 264.45
Q 313.7 264.35 315 263.95 316.05 263.65 316.05 262.9 314.55 262.2 312.8 262.45 312.8 262.75 312.35 262.75
M 318.7 269.75
Q 321.05 267.6 323.5 268 323.85 267.25 323.05 266.65 322.6 266.35 321.6 266.15 319.8 265.75 318.8 266.1 317.9 266.35 316.95 267.4 315.25 269.1 314.05 271.4 313.5 272.4 313.1 273.8 312.2 277 313.2 280.2
L 314.75 279.9
Q 315.05 279.3 315.05 278.25 314.95 276.7 315 276.4 315.1 275.5 315.85 274.2 317.45 271 318.7 269.75
M 288.8 217.8
Q 287.25 215.15 285.25 213.75 284.05 212.9 281.35 211.8
L 277.25 210.1
Q 274.65 209 273.25 208.7 271.7 208.3 269.65 208.25 268.7 208.2 266.05 208.25 261.95 208.5 261.1 208.6 257.45 209 253.5 210.55 251.3 211.35 249.2 212.6 248.1 213.2 245.05 215.35 241.65 217.85 240.45 219.4 239.2 221.55 238.45 222.55 237.4 223.8 236.95 224.4 236.15 225.5 236.05 226.5 236 227.25 236.35 228.35 236.55 228.95 236.95 230.15 237.25 231.25 237.6 233.45 237.95 234.85 239.9 237.9 242.8 242.2 244.55 244.1 246.3 246.05 247.75 246.85 249.1 247.65 251.05 248.25 265.4 253 278.8 252.7 282.8 252.6 285.5 251.8 287.55 251.15 289.8 249.8 291.15 249 293.8 247.1 295.6 245.9 296.1 244.8 296.45 243.9 296.35 241.95
L 296.15 238.55
Q 296.05 236.6 295.9 235.65 295.6 233.65 294.1 230.1
L 291.15 222.9
Q 289.85 219.6 288.8 217.8
M 286 217.95
Q 286.45 218.55 287.2 220.3
L 290.45 228.1
Q 291.85 231.4 292.35 233.1
L 293.35 237.6
Q 293.95 241 293 242.7 292.35 243.85 290.3 245.1 285.95 248 283.35 248.65 281.9 249 279.7 249.1 265.5 250 252.15 244.9 248.75 243.55 247.35 242.1 246.8 241.55 244.9 238.65 243.25 236.3 242.5 235.1 241.15 233.05 240.75 231.3 240.5 229.75 240.3 229 239.75 227.65 239.55 226.95 239.15 225.3 239.95 223.2 241 220.45 243.3 218.45 245.65 216.45 248.5 215.8 249.05 214.7 251.3 213.7 255.4 211.85 258.85 211 265.2 209.35 272 210.6
L 277 212.4
Q 278.8 213 280.1 213.65 281.4 214.3 283.25 215.6 285.25 217 286 217.95
M 287.05 234.1
Q 287.3001953125 232.040625 286.35 229.95 285.45 227.85 283.65 226.3 282.55 225.4 281.75 225.25 280.7 225.15 280.2 225.1 278.4 224.85 277.85 225.05 277.3 225.25 276.6 225.95 276.0283203125 226.5216796875 275.75 226.8 274.6865234375 227.1390625 273.95 227.8 273.92734375 227.821484375 273.9 227.85 272.9783203125 228.2693359375 272.55 228.65 271.35 229.75 271.35 232.8 271.35 236.7 272.85 238 274 238.95 276.35 239.15 278.8 239.4 283.75 239.4 283.9 239 284.35 238.65 284.65 238.45 285.25 238.1 285.75 237.75 286.2 236.9 286.4708984375 236.3357421875 286.65 235.75 287.0375 235.23828125 287.1 234.55 287.108984375 234.3453125 287.05 234.1
M 276.35 231.45
L 276.8 231.15 278.2 230.45 278.5 230.45 280.7 230.7
Q 280.8 230.75 281.05 231.1
L 281.25 231.45 281.15 231.8
Q 280.95 232.3 281.05 232.95 279.2 233.3 276.05 232.9 275.95 231.9 276.35 231.45
M 276.2 236.55
Q 276.0203125 236.49609375 275.8 236.35 276.381640625 236.523828125 277 236.65 276.4845703125 236.63125 276.2 236.55
M 361.2 197.4
Q 356.9 197.65 354.75 197.7 353.4 199 352.45 200.35 354.05 200.35 355.25 199.25 359.45 198.95 361.55 199 365.05 199.1 367.7 199.95 368.2 200.1 370.25 200.9 371.8 201.5 372.85 201.75 375.8 202.3 376.15 202.4 377.2 202.75 379.15 203.8 379.8 204.05 381.35 204.3 382.75 204.55 383.5 204.85 384.1 205.1 385.6 206.1 386.85 207 387.75 207.2 388.1 207.3 389.15 207.4 390.05 207.55 390.55 207.75 391 207.95 392.1 208.95 393 209.8 393.75 209.9 389.05 213.45 384.35 217.85
L 371.85 230.05
Q 370.05 231.85 370.7 233 371.05 233.75 372.05 233.8 372.95 233.85 373.65 233.3 374.2 232.85 374.75 232.05 375.1 231.55 375.7 230.6 376.3 229.8 377.6 228.75 379.15 227.45 379.65 226.95
L 381.95 224.3 388 218.8
Q 390.15 216.65 391.85 215.2 394.6 212.9 397.65 211.35 398.25 210.85 398.15 209.9 398.05 209 397.4 208.35 396.85 207.85 395.95 207.55 394.9 207.2 394.35 207
L 371.8 199.05
Q 369.35 198.15 367.55 197.8 364.95 197.25 361.2 197.4
M 362.05 171.85
Q 362.15 170.75 361.3 170.3 360.65 170 359.6 170.4 354.75 171.85 347.7 172.95 339.65 174.05 335.6 174.65 325.85 176.1 320.05 178.8 317.25 180.15 314 182.3 309.7 185.2 306.5 188.15 305.2 190.55 303.4 192.4 304.8 191.8 306.4 190.4 307.35 189.65 309.1 187.95 311.55 185.8 316.45 182.7 320.45 180.1 322.95 179.2 325 178.5 329.5 177.9
L 343.25 176.05
Q 351.35 174.9 358.75 173.3 356.45 176.05 354.85 178.8 354 180.15 353.2 181.75
L 351.95 184
Q 351 185.75 350.45 186.95 349.95 188.15 349.25 190.65 348.75 192.55 348.75 193.45 348.75 195.2 350 196.55 351.2 192.9 352.95 188.3
L 354.35 184.85
Q 355.25 182.75 355.8 181.75 356.65 180.1 358.5 177.6 360.7 174.6 361.35 173.55 361.95 172.45 362.05 171.85
M 273.95 166.25
Q 271.15 168.95 267.6 171.9 265.4 173.7 264.4 174.75 263.9 175.2 262.5 176.85
L 260.8 178.85
Q 259.35 180.65 258.85 181.65 258.25 183.35 257.75 184.1 257.45 184.55 256.65 185.4 255.9 186.15 255.6 186.7 255.4 187.05 255.1 188.1 254.8 189 254.5 189.45 253.9 190.25 253.8 190.45 253.5 191.05 253.75 191.45 254.65 190.85 255.6 189.5 256.1 188.75 257.1 187.25 257.2 187.15 258.15 186.1 258.75 185.45 259.05 184.9 259.45 184.2 260 182.65 260.6 181.45 261.95 180
L 276 166.5
Q 277.85 164.8 279.6 163.55 283.5 160.6 286.5 159.7 287.6 160.85 287.75 163 287.85 164.2 287.8 166.75 287.9 168.7 288.65 171.75 289.65 175.65 289.95 176.6 290.55 178.5 291.2 179.85
L 292.6 182.6
Q 293.85 184.95 294.6 186.05 295.8 187.8 297.25 188.85 299.4 190.3 301.1 189.5 300.6 188.5 299.35 187.4 297.5 185.75 297.3 185.55 296.55 184.75 295.15 182.5 293.4 179.5 293.05 178.6 292.25 176.75 291.4 173.05
L 290.5 169.35
Q 289.95 166.7 289.95 165.75 290.25 162.85 289.9 161.5 289.8 161.15 289.3 160 288.85 159.05 288.8 158.45 288.8 157.75 288.75 157.4 288.7 156.8 288.35 156.55 287.7 156.15 286.55 157.2 285.4 158.2 283.2 159.4 280.4 160.95 279.65 161.45 277.95 162.55 273.95 166.25
M 223.65 167.95
L 227.75 171.7
Q 231.55 175.25 234.2 177.35 237.2 179.8 238.05 180.8 238.25 181 239.15 182.3 239.85 183.2 240.4 183.7 241 184.25 242.85 185.35 246.3 187.55 248.9 190.55 250.4 192.25 251.4 191.7 251.95 191.4 251.95 190.65 251.9 189.9 251.45 189.4 251.1 189 250.45 188.6 249.7 188.2 249.3 187.95 248.65 187.55 247.75 186.6 246.65 185.55 246.2 185.2 245.6 184.75 244.2 183.9 242.85 183.1 242.2 182.55 241.6 182.05 240.8 181.05 239.7 179.65 239.45 179.4 238.55 178.35 235.6 176.05 233.95 174.8 230.85 172.1
L 215.65 159
Q 214.7 158.15 214.2 158.7 214 158.95 214 159.4
L 214 165.65
Q 213.9 168.95 214.15 171.15 214.3 172.3 214.75 174.55
L 215.45 178.1
Q 215.95 180.4 216 181.6 216.05 182.2 216 183.4 216.05 184.5 216.25 185.2 216.4 185.8 216.9 186.95 217.15 187.9 217.15 189.9 217.2 190.6 217.75 192.25 218.85 195.75 220.05 198.75 220.95 201.15 221.65 202.5 222.4 202.25 222.2 201.25 221.8 200.35 221.6 199.85 221.4 199.4 221.05 198.2
L 219.45 191.6
Q 218.65 188.3 218.35 186.65 217.85 184.55 217.8 182.75 217.8 180.2 217.65 179.55 217.25 178.45 217.05 177.85 216.55 176.5 216.35 173.6
L 215.55 161.45
Q 218.65 163.35 223.65 167.95
M 56.65 134.25
L 45.65 137.85
Q 38.9 140.05 34.95 140.5 33.85 140.65 29.95 140.75
L 17.05 140.9
Q 12.15 141 9.7 140.1 7.9 139.3 7 138.95 5.4 138.3 4.25 138.4 3.7 139.9 4.5 141.35 5.5 141.25 6.85 141.6 7.65 141.8 9.2 142.25 11.45 142.85 15.5 142.95 24.4 143.3 28.9 143.2 36.3 143.05 42.15 141.8 46.2 140.95 54.1 138.35 61.95 135.7 66 134.85 72.55 133.45 82.9 133.25 87.05 133.15 89.55 133.5 91.05 133.65 91.6 133.65 92.75 133.65 93.45 133.15 91.85 131.9 89.35 131.45 87.8 131.15 84.75 131.05 77.45 130.85 74.05 130.95 68.1 131.15 63.5 132.25 61.05 132.8 56.65 134.25
M 66.9 118.85
Q 64.5 120.1 63.55 120.6 61.65 121.55 60.15 122.2 57.1 123.55 53.2 124.75 50.55 125.5 46 126.65 45.1 126.9 44.65 127.05 43.95 127.35 43.55 127.8 43 128.4 42.9 129.35 42.8 130 42.9 131.05 44.75 131.4 47.65 130.95 51.55 130.3 52.4 130.25 53.6 130.2 55.6 130.4 58.1 130.6 58.85 130.65 61.95 130.75 65.7 129.85 68.2 129.2 72.35 127.75 74.85 126.85 76.2 126.3 78.3 125.45 79.9 124.55 83.1 122.6 84.75 121.65 87.5 120.1 89.75 119.7 89.8 120.1 89.95 120.45 90.15 120.85 90.5 121.3 90.75 121.6 91.2 122.1
L 93.35 124.9
Q 93.75 125.45 94.1 125.7 94.15 125.75 94.45 125.9 94.7 126.05 94.8 126.15 94.9 126.25 95 126.35 94.9 126.4 94.85 126.55 94.8 126.7 94.85 126.95 94.95 127.9 94.8 128.35 94.8 128.45 94.7 128.7 94.65 128.9 94.6 129 94.6 129.15 94.6 129.45 94.6 129.75 94.55 129.95 94.5 130.05 94.35 130.25 94.15 130.5 94.15 130.6 94 130.9 94 131.45
L 94.1 134.4 98.95 134.45
Q 99.35 134.45 99.5 134.3 99.65 134.15 99.65 133.7 99.65 132.9 99.6 132.5 99.6 132.15 99.35 131.35
L 99.05 130.35 99.25 130.3
Q 99.4 130.5 99.7 130.5 99.85 130.5 100.2 130.55 100.4 130.6 100.75 130.8 101.45 131.25 101.85 131.55 102.4 132.05 102.7 132.55 102.8 132.7 103 133.15 103.2 133.5 103.4 133.7 103.7 133.95 104.25 134.1 104.6 134.2 105.25 134.3 106.05 134.45 107.4 135.1 108.35 135.6 108.75 135.85 109.2 136.15 109.4 136.2 109.85 136.3 110.1 136.05 109.9 135.75 109.75 135.35 109.75 135.3 109.55 134.6 109.3 133.7 108.95 132.95 108.65 132.35 108.4 132 108.2 131.65 107.75 131.2 106.95 130.35 106.6 130.1 106.25 129.9 105.3 129.4 104.45 128.95 104.05 128.6 103.7 128.25 103.15 127.5
L 102 125.9
Q 102.1 125.9 102.25 125.85 102.35 125.7 102.25 125.5 102.15 125.3 101.95 125.15 100.65 124.15 100.4 123.9 99.6 123.15 99.45 122.3 99.4 121.9 99.55 121.15
L 100.3 115.8
Q 99.7 115.95 99.55 117.05
L 99.25 119.2
Q 99.1 120 98.9 120.95 98.6 122 98.75 122.5 98.85 122.9 99.15 123.3 99.3 123.55 99.75 124
L 101 125.25
Q 101.1 125.35 101.2 125.5 101.3 125.6 101.35 125.75
L 101.6 125.95
Q 102.4 127.35 103.4 128.55 103.8 129.05 104.1 129.25 104.15 129.3 104.95 129.75 106.25 130.4 107.25 131.45 108.2 132.55 108.75 133.8 109.05 134.5 108.95 135 107.2 134.05 105.2 133.6 104.7 133.5 104.45 133.4 104.05 133.2 103.85 132.95 103.8 132.9 103.55 132.45 103.25 131.95 102.45 131.15 101.65 130.4 101.15 130.15 100.5 129.8 99.1 129.6 98.45 129.55 98.2 129.8 98.05 130.05 98.25 130.45 98.35 130.65 98.6 131.05 98.7 131.2 98.75 131.5 98.75 131.65 98.8 131.95 98.85 132.25 99 132.8 99.1 133.3 99 133.65
L 94.65 133.7
Q 94.7 133.4 94.65 132.2 94.6 131.3 94.85 130.8 95 130.6 95.05 130.5 95.15 130.3 95.2 130.15 95.2 130.05 95.2 129.8 95.2 129.55 95.25 129.45 95.4 129.05 95.45 128.8 95.55 128.5 95.5 127.95 95.45 127.35 95.5 127.1 96 127.7 96.55 127.6 96.65 127.35 96.35 126.95 96 126.55 95.25 125.85 94.4 125.1 94.1 124.75 94 124.6 93.3 123.8
L 91.1 120.9
Q 90.6 120.25 90.45 119.85 90.35 119.7 90.35 119.55 90.65 119.35 90.6 119.1 90.6 118.9 90.3 118.8
L 90.25 118.8
Q 90.25 118.65 90.25 118.45 90.2 117.7 90.25 117.35 90.3 116.7 90.45 116.25 90.65 115.75 91.3 114.9
L 92.45 113.3
Q 92.75 112.95 92.8 112.7 92.7 112.6 92.5 112.6 92.25 112.6 92.1 112.75 91.95 112.9 91.7 113.35 91.6 113.45 91.4 113.65 91.25 113.8 91.15 113.9 91.05 114.05 90.85 114.4 90.7 114.75 90.55 114.9 90.5 115 90.3 115.2 90.1 115.4 90 115.5 89.9 115.65 89.8 116 89.7 116.25 89.7 116.55 89.6 117 89.6 117.95 89.6 118.5 89.65 118.85 87.45 119.25 84.75 120.8 83.2 121.7 80.15 123.7 77.3 125.35 73.35 126.8 71 127.65 66.2 129.05 64.75 129.45 64 129.65 62.8 129.95 61.8 130.05 60 130.25 56.65 130 53.1 129.75 51.45 129.85 51 129.9 47.4 130.45 44.95 130.85 43.4 130.6 43.2 130.1 43.4 129.55 43.6 129 44 128.6 44.6 128.05 46 127.5 47.65 126.9 50.6 126.25 53.95 125.45 55.2 125.05 58.8 123.95 63.85 121.1 71.3 116.85 72.2 116.4
L 77.6 113.8
Q 80.55 112.1 82.05 110.1 77.95 112.8 73.65 115.2 73.25 115.4 70.45 116.95
L 66.9 118.85
M 100.95 112
L 101.15 111.9
Q 101.15 111.7 101 111.4
L 100.85 111.35 100.85 111.45 100.5 111.6 100.5 112.05
Q 100.5 112.15 100.55 112.15 100.55 112.2 100.65 112.3 100.8 112.25 100.8 112.2
L 100.8 112.1
Q 100.85 112.05 100.95 112
M 149.9 104.55
Q 148.45 104.3 146.9 104.35 145.45 104.45 143.4 104.9 141.1 105.45 139.95 105.7 138.2 106.1 134.9 106.6 131.45 107.15 129.85 107.45 128.05 107.9 127.15 108.05 125.55 108.4 124.4 108.5 123.5 108.55 122.1 108.55
L 118.3 108.55
Q 117.75 108.55 117.5 108.7 117.05 108.6 116.6 108.6
L 116.6 108.7
Q 116.55 108.7 116.5 108.7
L 116.35 108.65
Q 115.25 108.95 114.45 110.25 114.3 110.5 113.85 111.3 113.5 112 113.2 112.35 113.1 112.5 112.75 112.95 112.45 113.3 112.3 113.55 112.1 113.9 111.8 114.6 111.5 115.2 110.6 116 108.75 117.65 105.35 119.25 103 120.35 100.5 121.25 100.5 120.8 100.45 120.55 100.4 120.55 100.3 120.6 100.25 120.6 100.25 120.75
L 100.25 121
Q 100.25 121.1 100.2 121.15 100.2 121.2 100.15 121.25 100.05 121.35 99.9 121.45 99.8 121.6 99.75 121.75
L 99.95 121.8
Q 100 121.9 100.2 122 100.45 122.1 100.7 122.05 101.6 121.95 102.9 121.4 107.1 119.8 110.55 117.1 111.6 116.3 111.95 115.8 112.35 115.3 112.85 114.25 114 112.05 115.45 110 116.05 109.2 116.55 109.3
L 116.55 109.25 116.8 109.25
Q 116.8 109.2 116.9 109.1 116.95 109.05 117.1 109.05
L 117.3 109 117.3 109.05
Q 117.3 109.25 117.45 109.35 119.85 109.5 121.15 109.5 123.25 109.5 124.9 109.3 126 109.2 128.15 108.8
L 132.85 107.95
Q 139.3 106.75 142.55 106.05 144.9 105.55 146.1 105.4 146.75 105.35 148.05 105.2 149.2 105 149.9 104.55
M 73.1 86.5
Q 73.1 86.15 72.95 86.1 72.75 86.05 72.7 86.25 72.6 86.4 72.6 86.6
L 72.75 89.95
Q 72.8 90.35 72.85 91.1 72.95 91.9 73.15 93.4
L 73.9 97.95
Q 74.15 99 74.6 100.5
L 76.95 108.15
Q 77.15 107.85 76.95 107.25
L 74.6 99.2
Q 74.35 98.3 74.3 97.9 74.2 97.55 74.1 96.8
L 73.75 94.75
Q 73.55 93.55 73.5 92.9
L 73.4 92.05
Q 73.35 91.3 73.25 90.95 73.15 90.35 73.1 90.1 73 89.6 73.05 88.9
L 73.1 86.5
M 99.05 75.4
Q 98.65 75.65 99.05 76.55 99.25 77.1 99.45 77.95 99.25 78.9 99.7 79.75 99.65 80.15 100 80.75 100.55 82.45 102.15 84.75 102.1 84.9 102.1 85.05 102.1 85.45 102.25 86.05 103.55 90.95 101.3 93.15 100.05 94.35 98 94.4 96.15 94.45 94.45 93.55 93 92.8 91.6 91.35 90.8 90.45 89.3 88.55 86.75 85.25 85 83.25 82.6 80.4 80.3 78.25 74.75 73.05 67.65 69.6 60.55 66.2 52.85 65.05 52.3 64.95 52.05 65.15 51.8 65.35 51.9 65.7 52 66 52.25 66.3 52.75 66.95 54.8 68.8 56.45 70.25 57.05 71.45 57.5 72.3 57.7 73.45 57.85 74.15 58 75.6
L 59.05 86.55
Q 59.3 89.1 59.55 90.55 59.9 92.7 60.55 94.4 61.5 97 63.6 99.6 66.1 102.75 69.45 105.15 72.65 107.4 76.25 108.75 76.3 109.65 76.8 110 77.2 110.35 78.2 110.35 78.95 110.35 79.2 110.05 79.35 109.9 79.45 109.6
L 79.45 109.1
Q 79.5 109 79.55 108.8 79.7 109 80 109.1 81.6 109.9 83.4 110.25 83.75 110.35 83.7 110.5 85 110.85 86.85 110.9 87.95 110.9 90.05 110.95 91.1 110.95 93.5 111.25 95.7 111.45 96.95 111.5 99.8 111.5 102.45 110.75 102.9 110.65 102.95 110.4 103.05 110.1 102.6 109.8 101.85 110.1 100.4 110.35 97.7 110.85 96.3 110.85 95.85 110.85 93.95 110.7 90.95 110.4 87.65 110.4 86 110.4 85.35 110.35 84.6 110.25 83.05 109.85 81.75 109.55 81.1 109.25 80.2 108.9 79.6 108.4 79.6 108.35 79.65 108.3 79.75 107.8 79.75 107.45 79.75 106.6 79.05 105.5 78.15 104.3 77.75 103.65 77.45 103.05 77.2 102.2 77.05 101.7 76.9 100.7
L 74.5 88.45
Q 74.15 86.7 73.95 85.85 73.9 85.6 73.75 85.55 73.6 85.5 73.55 85.7 73.45 85.85 73.5 86
L 75.7 97.45
Q 76.2 99.85 76.75 102.4 76.95 103.25 77.2 103.75 77.4 104.2 77.8 104.75 78.05 105.05 78.5 105.65 79.35 106.85 79.2 107.85 79.2 108 79.05 108.4 78.95 108.75 78.95 108.95 78.95 109.05 78.95 109.3 78.95 109.5 78.85 109.6 78.7 109.85 78.15 109.85 77.6 109.85 77.25 109.7 76.8 109.45 76.65 108.9 76.6984375 108.9 76.75 108.9 76.6984375 108.8984375 76.65 108.85 76.6 108.6 76.6 108.25 76.6 107.7 76.6 107.4 76.55 106.95 76.4 106.65 76.25 107.55 76.25 108.4 76.25 108.5 76.25 108.65 71.45 105.9 69.05 104.1 65 101.15 62.9 97.8 61.35 95.3 60.5 92.05 59.8 89.4 59.4 85.85 59.4 85.6 59 79.6 58.7 75.85 58.25 73.4 57.85 71.3 57.1 70.2 56.6 69.4 54.75 67.95 53.1 66.65 52.6 65.6 54.55 66.05 58.5 67 62 67.85 64.3 68.75 66.25 69.55 70 71.6 72.2 72.8 73.15 73.4 74.9 74.45 76.2 75.45 77.4 76.35 78.75 77.7 79.6 78.5 81.15 80.15 83.35 82.45 84.5 83.75 86.35 85.75 87.65 87.5 88.45 88.55 90.1 90.7 91.55 92.5 92.95 93.55 94.7 94.8 96.75 95.15 99 95.5 100.65 94.5 101.9 93.75 102.65 92.45 103.3 91.2 103.45 89.7 103.6 88.1 103 85.95 105.35 89.2 106 90.7 106.7 92.25 107.1 94.85 107.3 96 107.3 96.75 107.4 98.75 106.9 100.7 106.4 102.65 105.3 104.35 105.2 104.5 105.25 104.65 105.25 104.8 105.4 104.9 105.95 105 106.4 104.1 107.5 101.8 107.8 99.2 108.1 96.65 107.65 94.15 107 90.95 105.25 88.1 104.7 87.25 103.65 85.85 102.95 84.9 102.5 84.3 102.55 84 102.4 83.6 102.25 83.4 102 83.05 101.2 81.95 100.55 80.85 100.1 79.6 100.05 78.4 100 77.7 100 77.6 99.95 77.15 99.8 76.85 99.4 76.4 99.25 76.15 98.9 75.7 99.05 75.4
M 100.65 60.65
Q 100.55 60.95 100.45 61.6 100.2 63.05 99.8 64 99.65 64.3 99.35 64.9 99.05 65.45 98.9 65.75 98.45 66.95 98.45 68.25 98.45 68.7 98.5 69.15 98.45 68.9 98.35 68.6 98.25 68.8 98.3 69.1 98.3 69.2 98.4 69.6 98.65 70.35 98.6 72.2 98.55 73.9 98.85 74.75 99 75.15 99.3 75.6 99.45 75.85 99.8 76.35 100.1 76.75 100.25 77.05 100.2 77.15 100.25 77.25 100.25 77.5 100.3 77.6 100.35 77.7 100.5 77.85 100.55 78 100.5 78.25 100.5 78.45 100.55 78.55 100.6 78.7 100.75 78.9 100.8 79 100.8 79.25
L 100.8 80.5 101.05 80.5
Q 101.05 80.35 101.1 79.65 101.1 79.1 100.95 78.8
L 100.8 78.5
Q 100.75 78.35 100.8 78.1 100.8 77.85 100.75 77.7 100.703125 77.60625 100.65 77.55 100.903125 77.8025390625 101.15 78 101.6 78.45 102.55 79.05 103.75 79.8 105.3 80.65 106.3 81.2 108.1 82.15 109 82.6 109.5 82.75 109.9 82.85 110.95 82.9 111.45 82.95 111.8 83 111.75 83 111.8 83.05
L 112.15 83.05
Q 112.25 83.1 112.35 83.1
L 112.4 83.1
Q 112.2 84.45 112.55 85.7
L 112.7 86
Q 112.55 85.9 112.4 85.75 112.55 85.95 112.7 86.15
L 112.85 86.5
Q 113.2 87.6 113.2 88.75
L 113.45 88.85
Q 113.35 89.3 113.5 90.15
L 113.8 91.7
Q 113.9 92.1 113.9 92.55 113.95 92.9 113.95 94 113.9 94.9 114.05 95.45 114.15 95.85 114.15 96.05 114.1 96.3 113.9 96.75 113.1 98.25 112.4 100.55 112 101.95 111.85 102.45 111.3 104.05 110.55 105.15 110.6 105.3 110.8 105.35 110.95 105.45 111.1 105.35 111.35 105.25 111.55 104.8 111.9 104.05 112.25 103 112.65 101.75 112.85 101.15 113.5 99.05 114.45 96.9 114.75 96.15 114.7 95.7 114.7 95.6 114.6 95.35 114.5 95.05 114.45 95 114.4 94.7 114.4 93.75 114.45 93 114.35 92.25 114.3 91.55 114.2 91.2 114.05 90.1 113.75 88.7
L 113.65 88.1
Q 113.5 87.45 113.35 86.9 115.2 89 117.45 90.75 120.25 92.95 123.55 94.5 125 95.2 126.15 95.5 127.65 95.85 128.95 95.65 130.6 95.35 132.4 93.95 135.4 91.7 138 87.55 138.4 86.95 142.2 80.05 146.2 72.85 151.6 66.3 152.75 64.95 153.55 64.1 154.65 62.95 155.75 62.15 158.15 60.45 161.1 59.85 160 60.65 159.4 61.95 158.8 63.15 158.7 64.6 158.6 65.8 158.85 67.3 158.95 68.1 159.3 69.95 159.95 73.1 160.55 76.7 161.2 81 161.3 84 161.5 88 160.8 91.25 160 95.05 158 98.1 156.1 101.05 153.45 102.75 153.25 102.65 153.2 102.55 153.05 102.4 152.95 101.9 152.9 101.6 152.7 101.05
L 148.1 89
Q 147.55 87.55 147.35 86.85 147.05 85.6 147.05 84.3 146.75 84.4 146.75 84.85 146.65 85.85 147 87.1 147.15 87.85 147.7 89.3
L 152.05 101.35
Q 152.3 102 152.35 102.4 152.4 102.9 152.55 103.05 152.6 103.15 152.7 103.2
L 152.65 103.2
Q 152.25 103.45 152.05 103.75 151.85 104.15 152.1 104.35 152.4 104.55 152.95 104.25 153.4 103.95 153.8 103.7 153.85 103.7 153.9 103.75 154.1 103.95 154.05 104.15 153.3 104.5 152.75 104.65 152 104.8 151.45 104.6 151.05 104.45 150.8 104.15 150.7 104 150.55 103.5 150.2 102.15 149.5 100.1
L 149.2 99.2
Q 148.35 96.85 148.05 95.6
L 146.7 90.5
Q 146.6 90.25 146.55 89.7 146.45 89 146.45 88.6 146.35 87.85 146 86.4 145.9 85.8 145.65 85.55 145.45 85.4 145.15 85.45 144.9 85.45 144.8 85.7 145.35 87 145.5 87.7 145.55 88.2 145.65 89.15 145.75 89.9 146.2 91.7
L 147.5 96.65
Q 147.95 98.25 149.15 101.85
L 149.85 104
Q 150 104.5 150.2 104.75 150.75 105.5 152.45 105.45 153.35 105.4 153.85 105.2 154.2 105.05 154.45 104.75 154.7 104.5 154.75 104.15 154.75 103.85 154.6 103.55 154.55 103.4 154.45 103.25 157.7 100.85 159.7 96.8 161.9 92.35 162.15 86.9 162.3 82.7 161.35 76.9 160.1 70.25 159.6 66.9 159.4 65.65 159.4 64.9 159.4 63.75 159.85 62.95 160.1 62.5 160.7 61.85 161.4 61.05 161.6 60.75 162.15 59.95 161.85 59.45 161.65 59.1 161.15 59.05 160.75 58.95 160.2 59.1 157.25 59.75 154.5 62.1 152.45 63.85 150.05 67 143.75 75.2 139 84.25 137.9 86.35 137.75 86.65 136.95 88 136.3 89 134.85 91.1 132.85 92.7 130.6 94.6 128.55 94.9 127.2 95.1 125.55 94.65 124.3 94.3 122.75 93.45 120.05 92.05 117.3 89.95 115.4 88.5 113.3 86.55 113.15 86.1 113.05 85.7 112.75 84.85 112.7 84.45 112.7 84.3 112.7 83.75 112.7 83.35 112.65 83.1
L 113.55 83.15
Q 114 83.2 114.3 83.2 114.7 83.15 115 83.05 115.15 82.85 115.45 82.8 115.4 82.75 115.3 82.7 115.2 82.7 115.1 82.75 115.05 82.75 114.95 82.8 114.9 82.8 114.8 82.9 114.5 83.05 113.9 83.05 113.75 83.05 112.9 83 112.65 82.95 112.4 82.95 112.4 82.9 112.35 82.85 112.25 82.8 112 82.75 111.35 82.75 111 82.7 110.4 82.65 110 82.6 109.45 82.45 108.9 82.2 108.5 82.05 107.85 81.7 106.2 80.9 105.3 80.45 103.9 79.7 102.85 79 101.75 78.3 101.15 77.7 100.35 76.95 99.65 75.85 99.1 74.9 98.9 74.25 98.75 73.6 98.75 72.6 98.8 71.1 98.8 70.95 98.75 70.45 98.65 69.9 98.75 70.3 98.9 70.7 99.05 71 99.3 71.45 100.55 73.85 102.3 75.95
L 102.65 75.95
Q 101.05 74.15 99.55 71.45 99.3 70.95 99.15 70.7 98.7 69.6 98.65 68.45 98.6 67.25 99 66.15 99.15 65.75 99.7 64.7 100.2 63.8 100.35 63.2 100.4 62.9 100.5 62.4 100.6 61.8 100.65 61.55 100.8 60.65 101.25 59.85 100.85 60.1 100.65 60.65
M 103.95 53.2
Q 103.85 53.2 103.8 53.3 103.75 53.4 103.8 53.5 103.8 54.75 103.05 56.4 102.6 57.35 101.55 59.2 101.2 59.9 101.1 60.4 100.9 61.1 101 61.65 100.95 61.55 100.9 61.45 100.85 61.75 100.95 62
L 101.1 62.1
Q 101.25 62.65 101.3 62.95 101.4 63.45 101.4 63.85 101.4 64.1 101.3 65 101.2 65.75 101.25 66.2
L 101.35 66.3
Q 101.7 67.15 102.15 67.9 102.6 68.7 103.45 69.7 103.3 69.7 103.3 69.75
L 103.85 70.25
Q 103.95 70.35 104.05 70.4 104.25 70.65 104.45 70.85 104.6943359375 71.0453125 105.15 71.45 105.1294921875 71.4396484375 105.05 71.4 104.7 71.25 104.4 71.15 104.2 71.1 104 71.15 104 71.2 104 71.25 104.05 71.35 104.1 71.4 104.2 71.45 104.4 71.5 104.55 71.55 104.65 71.7 104.7 71.75 104.9 71.95
L 105.25 72.3
Q 105.7 72.75 105.9 72.9 106.15 73.1 106.2 73.15 106.4 73.35 106.7 73.7 107.1 74.15 107.8 74.45 108 74.55 108 74.6 108.35 74.75 108.7 74.75 108.75 74.85 108.85 74.95 109 75 109.15 74.95 109.25 74.85 109.1 74.7
L 108.8 74.25
Q 108.55 73.8 108.45 73.7 108.35 73.55 108.1 73.35 107.95 73.15 107.8 73.05 107.7 72.95 107.4 72.75 107.05 72.5 106.35 71.95 105.7 71.4 105.35 71.1 105.45 71.05 105.4 70.95 105.4 70.85 105.3 70.75 105.2 70.65 105 70.55 104.85 70.5 104.8 70.45
L 104.75 70.35
Q 104.7 70.3 104.55 70.25 104.45 70.2 104.2 70 104 69.8 103.85 69.8
L 103.8 69.8
Q 103.05 68.8 102.7 68.35 102.3 67.75 102 67.15 101.5 66.25 101.45 65.65 101.4 65.35 101.5 64.9 101.55 64.4 101.6 64.15 101.65 63.45 101.5 62.8 101.55 62.9 101.6 63 103.05 65.5 104.85 67.8 105.75 68.95 106.4 69.55 106.7 69.8 106.9 69.75 105.5 68.55 104.15 66.7 103.3 65.6 101.9 63.3 101.5 62.65 101.35 62.25 101.05 61.65 101.05 61.15 101.1 60.65 101.35 60 101.65 59.3 102.55 57.65 103.35 56.2 103.65 55.35 104 54.25 103.95 53.2
M 121 68.25
Q 120.95 68.25 120.9 68.25 120.85 68.7 120.95 68.9 121.05 69.1 121.05 69.15 121.05 69.2 121.05 69.3 121.05 69.4 121.05 69.45 121.1 69.55 121.15 69.6 121.1 70.1 121 70.35 120.85 70.8 120.65 71.1 120.5 71.3 120.25 71.55 120.1 71.7 119.75 71.95 119.25 72.4 118.95 72.6 118.5 72.9 118.1 73.1 117.7 73.3 117.55 73.35 117.35 73.5 117.3 73.6
L 117.05 73.6
Q 117.05 73.55 117.05 73.5 117.05 73.45 117 73.4 116.85 73.45 116.65 73.5
L 116.65 73.7 117.3 73.75
Q 117.25 73.75 117.25 73.8
L 117.6 73.8 118.05 73.85 118.05 74.05
Q 119.05 73.75 119.75 73.1 120 72.85 120.3 72.45 121.15 71.35 121.75 70.1 121.65 70 121.5 70 121.35 70 121.25 70.1 121.25 70.05 121.25 70 121.35 69.95 121.35 69.9 121.35 69.8 121.35 69.7 121.4 69.45 121.25 69.2
L 121.2 69.4
Q 121.2 69.35 121.2 69.15 121.2 69.05 121.15 68.95 121.1 68.9 121.05 68.85
L 121.05 68.65
Q 121.05 68.45 121 68.25
M 100.25 44
Q 100.1 42.9 100.8 42.05 101.1 41.7 101.7 41.35 102.1 41.1 102.8 40.85 103.6 40.5 104.15 40.4 104.95 40.2 105.6 40.35 106.3 40.55 106.85 41.1 107.25 41.45 107.7 42.15 110.25 46.05 112.15 50.3 112.6 51.25 112.7 51.45 113 52.05 113.3 52.5 113.9 53.45 114.95 54.45 115.4 54.9 116.9 56.2 119 58 120.25 59.35 121.9 61.2 122.65 63 123.2 64.3 122.95 65.15 122.85 65.6 122.45 66.1 122.2 66.45 121.65 66.95
L 119.2 69.35
Q 120.0921875 68.9744140625 120.9 68.25 120.9482421875 68.1986328125 121 68.15 121.5 67.65 122.35 66.65 122.55 66.35 122.7 66.15 122.85 66.5 123.3 66.9 123.9 67.55 124 67.65 124.35 68.1 124.55 68.75 124.7 69.2 124.8 69.9 124.85 70.25 124.8 70.45 124.75 70.7 124.5 71.05 124.35 71.25 123.9 72 123.45 72.55 123.25 72.95 122.7 74 122.45 75.1 122.35 75.5 122.3 76.15 122.3 76.45 122.2 77.15 122.15 77.6 122.05 78
L 122.05 77.95
Q 121.95 77.95 121.9 78.15 121.9 78.4 121.7 78.85 121.55 79.15 121.45 79.3 121.4 79.35 121.25 79.5 121.1 79.65 121.05 79.75 121 79.8 120.85 80 120.8 80.1 120.65 80.15
L 120.3 80.45
Q 119.75 80.9 119.45 81.1 118.85 81.45 118.25 81.65 118.05 81.75 117.9 81.75 117.75 81.8 117.55 81.8 116.65 81.85 115.8 81.95 115.15 82 114.8 82.15
L 114.55 82.1
Q 113.5 81.9 113.05 81.75 112.55 81.55 111.95 81.25 111.6 81 110.95 80.6
L 110.4 80.2
Q 109.45 79.6 109.05 79.3 108.55 78.9 108.35 78.75 108.15 78.7 108.1 78.65 107.95 78.6 107.85 78.55 107.8 78.5 107.65 78.4 107.55 78.3 107.45 78.25
L 107.1 78
Q 106.9 77.8 106.55 77.85
L 108.4 79
Q 108.95 79.35 110.25 80.3
L 110.8 80.65
Q 111.45 81.15 111.7 81.3 112.15 81.55 112.6 81.75 112.85 81.85 113.4 82 114.1 82.2 114.55 82.25
L 114.6 82.25 114.6 82.3 114.9 82.35
Q 115.2 82.35 115.45 82.3
L 115.15 82.25
Q 115.4 82.15 115.85 82.1
L 117.1 82
Q 117.75 81.95 118.05 81.9 118.55 81.8 119.2 81.4 119.85 81.05 120.5 80.55 120.7 80.4 120.85 80.25 121 80.1 121.35 79.7
L 121.4 79.7
Q 121.55 79.7 121.65 79.65 121.8 79.55 121.95 79.3 122.25 78.55 122.4 78 122.6 77.3 122.65 76.7 122.65 76.1 122.65 75.85 122.7 75.65 122.8 75.2 122.9 74.75 123 74.55 123.4 73.15 124.3 71.95 124.7 71.4 124.75 71.35 125 70.95 125.05 70.65 125.1 70.4 125.05 70.15 125.05 69.95 125 69.6 124.85 68.85 124.7 68.45 124.5 68 124.1 67.5 123.8 67.1 123.25 66.65
L 122.75 66.15
Q 122.85 66 122.9 65.9 123.15 65.45 123.3 65.1 123.55 64.15 122.95 62.75 122.05 60.75 119.9 58.6 119.1 57.8 115.85 54.95 115 54.15 114.5 53.7 113.85 53.05 113.4 52.4 113.1 51.95 112.8 51.25
L 112.25 50.1
Q 111.55 48.6 110.55 46.7 109.15 44.2 107.7 41.95 107.25 41.3 106.9 40.95 106.4 40.45 105.8 40.25 105.05 40 104.1 40.25 103.45 40.4 102.4 40.8 101.65 41.15 101.3 41.35 100.65 41.75 100.4 42.15 99.95 42.8 100.05 43.95 100.2 45.45 100.95 46.3 101.2 46.55 101.75 47.05 102.3 47.5 102.55 47.8 102.85 48.15 103.1 48.7 103.2 49.05 103.4 49.75
L 104.3 53.5 103.7 50.5
Q 103.5 49.65 103.35 49.2 103.15 48.5 102.8 47.95 102.55 47.55 102 47 101.3 46.2 101.15 46 100.35 45.05 100.25 44 Z"/>
</g>
</defs>

<g transform="matrix( 1, 0, 0, 1, 0,0) ">
<use xlink:href="#Layer0_0_FILL"/>
</g>
</svg>
