<svg id="SvgjsSvg1001" width="100%" height="100%" xmlns="http://www.w3.org/2000/svg" version="1.1" xmlns:xlink="http://www.w3.org/1999/xlink" xmlns:svgjs="http://svgjs.com/svgjs"><defs id="SvgjsDefs1002"/><g id="SvgjsG1008" transform="matrix(1,0,0,1,526,336.5)"><polyline id="SvgjsPolyline1019" points="-428,-263 -415,-253 -393,-232 -343,-174 -307,-138 -289,-123 -230,-81 -174,-23 -147,-3 -110,15 -92,21 -86,25" fill="none" stroke-linejoin="round" stroke-linecap="round" stroke-opacity="1" stroke="#000000" stroke-width="4" filter="url(#canvas)"/><polyline id="SvgjsPolyline1027" points="-376,-177 -372,-179 -371,-177 -378,-161 -392,-140 -394,-140 -397,-136 -414,-125 -415,-112" fill="none" stroke-linejoin="round" stroke-linecap="round" stroke-opacity="1" stroke="#000000" stroke-width="4" filter="url(#squiggly)"/><polyline id="SvgjsPolyline1031" points="-380,-173 -379,-174 -405,-147 -424,-116 -426,-107 -425,-105 -420,-104 -402,-104 -382,-110 -370,-110 -363,-107 -351,-97 -345,-95" fill="none" stroke-linejoin="round" stroke-linecap="round" stroke-opacity="1" stroke="#000000" stroke-width="4" filter="url(#squiggly)"/><polyline id="SvgjsPolyline1035" points="-330,-85 -330,-92 -336,-105 -340,-110 -378,-110 -389,-111 -396,-115 -394,-125 -389,-135 -380,-146 -377,-152 -377,-162" fill="none" stroke-linejoin="round" stroke-linecap="round" stroke-opacity="1" stroke="#000000" stroke-width="4" filter="url(#squiggly)"/><polyline id="SvgjsPolyline1039" points="-318,-189 -318,-187 -307,-177 -299,-163 -288,-152" fill="none" stroke-linejoin="round" stroke-linecap="round" stroke-opacity="1" stroke="#000000" stroke-width="4" filter="url(#squiggly)"/><polyline id="SvgjsPolyline1043" points="-288,-153 -288,-145 -282,-141 -274,-139 -254,-139 -245,-141 -232,-148 -218,-153 -209,-153 -190,-161 -171,-163" fill="none" stroke-linejoin="round" stroke-linecap="round" stroke-opacity="1" stroke="#000000" stroke-width="4" filter="url(#squiggly)"/><polyline id="SvgjsPolyline1047" points="-166,-163 -160,-161 -154,-155 -147,-144" fill="none" stroke-linejoin="round" stroke-linecap="round" stroke-opacity="1" stroke="#000000" stroke-width="4" filter="url(#squiggly)"/><polyline id="SvgjsPolyline1051" points="-319,-176 -313,-167 -306,-160 -303,-151 -301,-134 -305,-126 -314,-122 -323,-122" fill="none" stroke-linejoin="round" stroke-linecap="round" stroke-opacity="1" stroke="#000000" stroke-width="4" filter="url(#squiggly)"/><polyline id="SvgjsPolyline1055" points="-336,-148 -337,-131 -356,-120 -370,-120" fill="none" stroke-linejoin="round" stroke-linecap="round" stroke-opacity="1" stroke="#000000" stroke-width="4" filter="url(#squiggly)"/><polyline id="SvgjsPolyline1059" points="-293,-128 -264,-128 -231,-132 -207,-140 -150,-141 -143,-138" fill="none" stroke-linejoin="round" stroke-linecap="round" stroke-opacity="1" stroke="#000000" stroke-width="4" filter="url(#squiggly)"/><polyline id="SvgjsPolyline1063" points="-143,-139 -120,-138 -111,-131 -102,-127 -90,-109 -88,-108 -88,-89" fill="none" stroke-linejoin="round" stroke-linecap="round" stroke-opacity="1" stroke="#000000" stroke-width="4" filter="url(#squiggly)"/><polyline id="SvgjsPolyline1067" points="-317,-93 -315,-91 -304,-90 -249,-90 -227,-93 -201,-99 -170,-99 -154,-104 -136,-107 -128,-107 -119,-103 -112,-99 -109,-96 -109,-94" fill="none" stroke-linejoin="round" stroke-linecap="round" stroke-opacity="1" stroke="#000000" stroke-width="4" filter="url(#squiggly)"/><polyline id="SvgjsPolyline1071" points="-138,-79 -117,-70 -96,-65 -82,-64" fill="none" stroke-linejoin="round" stroke-linecap="round" stroke-opacity="1" stroke="#000000" stroke-width="4" filter="url(#squiggly)"/><polyline id="SvgjsPolyline1075" points="-158,-65 -157,-55 -137,-50" fill="none" stroke-linejoin="round" stroke-linecap="round" stroke-opacity="1" stroke="#000000" stroke-width="4" filter="url(#squiggly)"/><polyline id="SvgjsPolyline1079" points="-100,-44 -87,-39 -76,-39" fill="none" stroke-linejoin="round" stroke-linecap="round" stroke-opacity="1" stroke="#000000" stroke-width="4" filter="url(#squiggly)"/><polyline id="SvgjsPolyline1083" points="83,-276 83,-276" fill="none" stroke-linejoin="round" stroke-linecap="round" stroke-opacity=".5" stroke="#966813" stroke-width="4" filter="url(#squiggly)"/><polyline id="SvgjsPolyline1087" points="-383,-202 -372,-205 -367,-208 -350,-220 -338,-231 -343,-230 -354,-223 -388,-192 -388,-194 -381,-204 -351,-231 -351,-233 -355,-232 -374,-218 -358,-235 -352,-237 -383,-208 -395,-194 -395,-192 -390,-195 -350,-232 -325,-251 -323,-251 -331,-240 -372,-201 -382,-190 -384,-185 -381,-191 -362,-212 -343,-229 -375,-187 -350,-215 -338,-227 -331,-231 -328,-230 -329,-227 -359,-204 -360,-203 -345,-213 -340,-218 -338,-218 -361,-198 -347,-205 -343,-205 -329,-211 -334,-210 -348,-203 -356,-197 -364,-187 -350,-199 -327,-211 -319,-219 -322,-218 -350,-188 -324,-203 -341,-186 -351,-183 -363,-186 -334,-191 -325,-194 -321,-196 -313,-204 -311,-207 -311,-211 -313,-213 -322,-215 -324,-214 -335,-196 -327,-200 -322,-205 -322,-215 -324,-205 -326,-225 -329,-230 -334,-232 -335,-231 -329,-223 -322,-206 -322,-215 -324,-222 -335,-231 -337,-231 -337,-221 -333,-207 -332,-206 -335,-212 -337,-236 -343,-235 -333,-222 -331,-216 -332,-207 -333,-229 -338,-234 -343,-236 -343,-190 -346,-186 -354,-183 -364,-183 -374,-189 -379,-194 -382,-202 -373,-194 -360,-186 -348,-181 -351,-187 -365,-195 -363,-191 -362,-190 -361,-195 -362,-198 -367,-203 -362,-201 -350,-190 -355,-195 -371,-201 -372,-200 -371,-198 -366,-197 -353,-200 -332,-201 -335,-203 -347,-194 -354,-192 -360,-192 -369,-201 -345,-203 -335,-206 -331,-209 -331,-213 -336,-214 -354,-183 -354,-192 -346,-210 -339,-217 -339,-213 -348,-186 -338,-207 -330,-219 -334,-220 -342,-213 -347,-197 -354,-191 -364,-190 -374,-208 -344,-208 -333,-225 -341,-225 -343,-228 -343,-238 -346,-230 -350,-226 -351,-231 -349,-236 -340,-236 -337,-234 -328,-225 -323,-210 -325,-226 -331,-228 -343,-241 -347,-241 -355,-232 -355,-234 -353,-235" fill="none" stroke-linejoin="round" stroke-linecap="round" stroke-opacity=".5" stroke="#966813" stroke-width="4" filter="url(#squiggly)"/><polyline id="SvgjsPolyline1091" points="-371,-219 -355,-218 -366,-214" fill="none" stroke-linejoin="round" stroke-linecap="round" stroke-opacity=".5" stroke="#966813" stroke-width="4" filter="url(#squiggly)"/><polyline id="SvgjsPolyline1095" points="-373,-217 -370,-213 -361,-211" fill="none" stroke-linejoin="round" stroke-linecap="round" stroke-opacity=".5" stroke="#966813" stroke-width="4" filter="url(#squiggly)"/><polyline id="SvgjsPolyline1099" points="-345,-211 -325,-211" fill="none" stroke-linejoin="round" stroke-linecap="round" stroke-opacity=".5" stroke="#966813" stroke-width="4" filter="url(#squiggly)"/><polyline id="SvgjsPolyline1103" points="-331,-214 -334,-212 -341,-211 -324,-211" fill="none" stroke-linejoin="round" stroke-linecap="round" stroke-opacity=".5" stroke="#966813" stroke-width="4" filter="url(#squiggly)"/><polyline id="SvgjsPolyline1107" points="-324,-212 -316,-213 -316,-219 -330,-212 -335,-213" fill="none" stroke-linejoin="round" stroke-linecap="round" stroke-opacity=".5" stroke="#966813" stroke-width="4" filter="url(#squiggly)"/><polyline id="SvgjsPolyline1111" points="-345,-202 -348,-194 -345,-212" fill="none" stroke-linejoin="round" stroke-linecap="round" stroke-opacity=".5" stroke="#966813" stroke-width="4" filter="url(#squiggly)"/><polyline id="SvgjsPolyline1115" points="-345,-212 -345,-198 -350,-194 -356,-194 -350,-194" fill="none" stroke-linejoin="round" stroke-linecap="round" stroke-opacity=".5" stroke="#966813" stroke-width="4" filter="url(#squiggly)"/><polyline id="SvgjsPolyline1119" points="-350,-194 -341,-195 -342,-209" fill="none" stroke-linejoin="round" stroke-linecap="round" stroke-opacity=".5" stroke="#966813" stroke-width="4" filter="url(#squiggly)"/><polyline id="SvgjsPolyline1123" points="-378,-135 -377,-131 -369,-128 -358,-127 -351,-129 -345,-134 -345,-137 -340,-148 -334,-157 -342,-140 -353,-123 -360,-118 -369,-118" fill="none" stroke-linejoin="round" stroke-linecap="round" stroke-opacity=".5" stroke="#966813" stroke-width="13" filter="url(#squiggly)"/><polyline id="SvgjsPolyline1127" points="-331,-127 -306,-128 -299,-138 -298,-154 -307,-131 -313,-125" fill="none" stroke-linejoin="round" stroke-linecap="round" stroke-opacity=".5" stroke="#966813" stroke-width="13" filter="url(#squiggly)"/><polyline id="SvgjsPolyline1131" points="-276,-120 -256,-120 -216,-130 -174,-131 -165,-128" fill="none" stroke-linejoin="round" stroke-linecap="round" stroke-opacity=".5" stroke="#966813" stroke-width="13" filter="url(#squiggly)"/><polyline id="SvgjsPolyline1135" points="-247,-145 -239,-145 -212,-150 -136,-150 -124,-146 -114,-140 -103,-125 -100,-117" fill="none" stroke-linejoin="round" stroke-linecap="round" stroke-opacity=".5" stroke="#966813" stroke-width="13" filter="url(#squiggly)"/><polyline id="SvgjsPolyline1139" points="-285,-139 -229,-138 -213,-143 -203,-151 -194,-155 -181,-155 -174,-153 -161,-143" fill="none" stroke-linejoin="round" stroke-linecap="round" stroke-opacity=".5" stroke="#966813" stroke-width="13" filter="url(#squiggly)"/><polyline id="SvgjsPolyline1143" points="-319,-94 -304,-93 -290,-89 -317,-84" fill="none" stroke-linejoin="round" stroke-linecap="round" stroke-opacity=".5" stroke="#966813" stroke-width="13" filter="url(#squiggly)"/><polyline id="SvgjsPolyline1147" points="-340,-88 -343,-88 -350,-93 -362,-96 -407,-101 -417,-108 -419,-112 -419,-120 -416,-126 -389,-154 -385,-168" fill="none" stroke-linejoin="round" stroke-linecap="round" stroke-opacity=".5" stroke="#966813" stroke-width="13" filter="url(#squiggly)"/><polyline id="SvgjsPolyline1151" points="-304,-81 -281,-82 -200,-94" fill="none" stroke-linejoin="round" stroke-linecap="round" stroke-opacity=".5" stroke="#966813" stroke-width="13" filter="url(#squiggly)"/><polyline id="SvgjsPolyline1155" points="-366,9 -377,9 -377,5 -354,5 -339,13 -330,16 -332,14 -336,14 -348,19 -360,20 -369,15 -374,14 -376,11 -376,5 -378,3 -364,4 -350,-2 -334,1 -334,12 -335,-1 -340,-7 -372,-7 -376,-10 -385,-12 -391,-16 -401,-17 -406,-22 -409,-31 -414,-35 -414,-41 -408,-47 -399,-50 -347,-51 -366,-48 -398,-50 -412,-42 -417,-35 -417,-30 -415,-28 -391,-14 -382,-12 -363,-12 -361,-10 -358,-11 -358,-17 -355,-23 -347,-29 -343,-29 -337,-17 -335,-19 -332,-27 -335,-28 -341,-27 -359,-12 -365,-11 -367,-14 -367,-21 -362,-31 -356,-37 -341,-42 -335,-47 -330,-54 -326,-44 -314,-35 -305,-35 -297,-38 -294,-40 -294,-42 -295,-44 -298,-45 -339,-44 -345,-46 -373,-71 -370,-72 -292,-67 -248,-69 -238,-63 -223,-58 -183,-60 -167,-67 -133,-70 -137,-69 -137,-67" fill="none" stroke-linejoin="round" stroke-linecap="round" stroke-opacity=".5" stroke="#966813" stroke-width="13" filter="url(#squiggly)"/><polyline id="SvgjsPolyline1159" points="-137,-64 -137,-60 -168,-58 -178,-53 -185,-52 -151,-52 -138,-49 -134,-47 -135,-45 -188,-38 -225,-38 -234,-39 -252,-45 -277,-46 -285,-42 -294,-29 -297,-27 -301,-26 -303,-28 -303,-33 -299,-40 -288,-47 -289,-60 -271,-60 -254,-55 -231,-53 -216,-50 -187,-29 -169,-28 -150,-34 -129,-44 -144,-44 -143,-46 -128,-53 -122,-54 -129,-54 -142,-48 -168,-41 -200,-40 -216,-44 -225,-49 -235,-51 -261,-52 -285,-60 -292,-59" fill="none" stroke-linejoin="round" stroke-linecap="round" stroke-opacity=".5" stroke="#966813" stroke-width="13" filter="url(#squiggly)"/><polyline id="SvgjsPolyline1163" points="-309,-58 -368,-58 -378,-61 -379,-51 -377,-45 -366,-28 -364,-12 -367,-9 -384,-5 -384,11 -383,14 -379,17 -326,26 -313,26 -312,17" fill="none" stroke-linejoin="round" stroke-linecap="round" stroke-opacity=".5" stroke="#966813" stroke-width="13" filter="url(#squiggly)"/><polyline id="SvgjsPolyline1167" points="-316,21 -330,29 -356,29 -367,24 -377,14 -382,5 -383,-20 -381,-27 -393,-33 -401,-33 -410,-29 -415,-30 -418,-37 -418,-50 -411,-60 -401,-64 -381,-62 -379,-60 -379,-55" fill="none" stroke-linejoin="round" stroke-linecap="round" stroke-opacity=".5" stroke="#966813" stroke-width="13" filter="url(#squiggly)"/><polyline id="SvgjsPolyline1171" points="-199,-53 -206,-53 -212,-59 -214,-59 -214,-56 -212,-54 -201,-50 -170,-43 -169,-45" fill="none" stroke-linejoin="round" stroke-linecap="round" stroke-opacity=".5" stroke="#966813" stroke-width="13" filter="url(#squiggly)"/><polyline id="SvgjsPolyline1175" points="-94,-84 -111,-84 -118,-87 -127,-103 -137,-108 -175,-106 -192,-103 -208,-97 -219,-97 -283,-89 -250,-94 -229,-95 -216,-98 -186,-113 -177,-116 -160,-126 -155,-131 -142,-137 -131,-136 -128,-126 -125,-123 -113,-100 -105,-90 -106,-89 -110,-90 -149,-112 -170,-119 -179,-118 -200,-109 -231,-109 -244,-107 -249,-104 -242,-105 -225,-112 -208,-121 -169,-146 -168,-151 -165,-154 -159,-154 -141,-142 -111,-128 -104,-121 -96,-100 -112,-100 -141,-110 -166,-121 -177,-123 -142,-121 -121,-117 -107,-107 -98,-92 -95,-82 -96,-103 -98,-107 -106,-112 -134,-123 -107,-104 -101,-96" fill="none" stroke-linejoin="round" stroke-linecap="round" stroke-opacity=".3" stroke="#136096" stroke-width="13" filter="url(#squiggly)"/><polyline id="SvgjsPolyline1179" points="-132,-38 -132,-35 -134,-33 -150,-23 -169,-18 -182,-18 -203,-21 -214,-25 -239,-30 -262,-45 -271,-46 -236,-37 -204,-31 -168,-30 -155,-41 -148,-43 -146,-45 -182,-33 -201,-33 -214,-38 -234,-42 -243,-47 -254,-48 -250,-50 -222,-55 -209,-55 -190,-51 -183,-51 -165,-56 -142,-59 -135,-61 -133,-64" fill="none" stroke-linejoin="round" stroke-linecap="round" stroke-opacity=".3" stroke="#136096" stroke-width="13" filter="url(#squiggly)"/><polyline id="SvgjsPolyline1185" points="-315,-214 -317,-241 -336,-267 -343,-282 -348,-286 -374,-278 -390,-278 -410,-272 -423,-265 -435,-240 -431,-223 -431,-215 -437,-188 -439,-157" fill="none" stroke-linejoin="round" stroke-linecap="round" stroke-opacity=".3" stroke="#373a3d" stroke-width="7" filter="url(#squiggly-animated)"/><polyline id="SvgjsPolyline1191" points="-379,-222 -391,-195 -401,-181 -411,-171 -423,-144 -447,-119" fill="none" stroke-linejoin="round" stroke-linecap="round" stroke-opacity=".3" stroke="#373a3d" stroke-width="7" filter="url(#squiggly-animated)"/><polyline id="SvgjsPolyline1197" points="-403,-248 -406,-248 -413,-243 -433,-212 -439,-197 -449,-163 -457,-145 -462,-126" fill="none" stroke-linejoin="round" stroke-linecap="round" stroke-opacity=".3" stroke="#373a3d" stroke-width="7" filter="url(#squiggly-animated)"/><polyline id="SvgjsPolyline1203" points="-449,-114 -447,-115 -435,-134 -421,-174 -417,-192 -417,-234" fill="none" stroke-linejoin="round" stroke-linecap="round" stroke-opacity=".3" stroke="#373a3d" stroke-width="7" filter="url(#squiggly-animated)"/><polyline id="SvgjsPolyline1209" points="-346,-251 -397,-251 -414,-243 -428,-231 -434,-229 -454,-230 -459,-228" fill="none" stroke-linejoin="round" stroke-linecap="round" stroke-opacity=".3" stroke="#373a3d" stroke-width="7" filter="url(#squiggly-animated)"/><polyline id="SvgjsPolyline1215" points="-449,-181 -443,-183 -430,-200 -411,-216 -392,-225 -382,-232" fill="none" stroke-linejoin="round" stroke-linecap="round" stroke-opacity=".3" stroke="#373a3d" stroke-width="7" filter="url(#squiggly-animated)"/><polyline id="SvgjsPolyline1221" points="-358,-249 -363,-249 -378,-257 -392,-262 -412,-263" fill="none" stroke-linejoin="round" stroke-linecap="round" stroke-opacity=".3" stroke="#373a3d" stroke-width="7" filter="url(#squiggly-animated)"/><polyline id="SvgjsPolyline1227" points="-323,-264 -323,-264" fill="none" stroke-linejoin="round" stroke-linecap="round" stroke-opacity=".3" stroke="#373a3d" stroke-width="7" filter="url(#squiggly-animated)"/><polyline id="SvgjsPolyline1233" points="-294,-210 -294,-208 -291,-206 -252,-208 -250,-203" fill="none" stroke-linejoin="round" stroke-linecap="round" stroke-opacity=".3" stroke="#373a3d" stroke-width="7" filter="url(#squiggly-animated)"/><polyline id="SvgjsPolyline1239" points="-320,-232 -278,-232 -272,-233 -270,-235" fill="none" stroke-linejoin="round" stroke-linecap="round" stroke-opacity=".3" stroke="#373a3d" stroke-width="7" filter="url(#squiggly-animated)"/><polyline id="SvgjsPolyline1245" points="-324,-257 -322,-249 -316,-240 -308,-234 -301,-230 -290,-227 -269,-225" fill="none" stroke-linejoin="round" stroke-linecap="round" stroke-opacity=".3" stroke="#373a3d" stroke-width="7" filter="url(#squiggly-animated)"/><polyline id="SvgjsPolyline1251" points="-333,-269 -313,-253 -291,-242 -265,-243 -262,-245" fill="none" stroke-linejoin="round" stroke-linecap="round" stroke-opacity=".3" stroke="#373a3d" stroke-width="7" filter="url(#squiggly-animated)"/><polyline id="SvgjsPolyline1257" points="-391,-270 -402,-261 -437,-250 -454,-248" fill="none" stroke-linejoin="round" stroke-linecap="round" stroke-opacity=".3" stroke="#373a3d" stroke-width="7" filter="url(#squiggly-animated)"/><polyline id="SvgjsPolyline1263" points="-404,-221 -416,-213 -440,-207" fill="none" stroke-linejoin="round" stroke-linecap="round" stroke-opacity=".3" stroke="#373a3d" stroke-width="7" filter="url(#squiggly-animated)"/><polyline id="SvgjsPolyline1269" points="-400,-196 -423,-179 -435,-173" fill="none" stroke-linejoin="round" stroke-linecap="round" stroke-opacity=".3" stroke="#373a3d" stroke-width="7" filter="url(#squiggly-animated)"/><polyline id="SvgjsPolyline1275" points="-319,-288 -323,-288" fill="none" stroke-linejoin="round" stroke-linecap="round" stroke-opacity=".3" stroke="#373a3d" stroke-width="7" filter="url(#squiggly-animated)"/><polyline id="SvgjsPolyline1281" points="-340,-260 -346,-261 -361,-270 -371,-270 -397,-262 -402,-263 -407,-268 -413,-268 -417,-270 -425,-270 -431,-266" fill="none" stroke-linejoin="round" stroke-linecap="round" stroke-opacity=".3" stroke="#373a3d" stroke-width="7" filter="url(#squiggly-animated)"/><polyline id="SvgjsPolyline1287" points="-331,-246 -336,-248 -339,-253 -355,-262 -364,-262 -373,-257 -387,-244 -393,-234 -403,-222 -410,-209 -412,-197 -411,-200 -380,-228 -371,-238 -359,-246 -352,-248 -360,-247 -374,-236 -410,-200 -411,-205 -407,-217 -403,-222 -376,-241 -358,-250 -349,-251 -362,-251 -378,-245 -400,-233 -408,-225 -412,-218 -412,-225 -409,-233 -393,-248 -380,-257 -370,-260 -343,-258 -349,-260 -368,-260 -398,-256 -368,-264 -336,-263 -322,-257 -343,-269 -354,-270 -364,-267 -341,-269 -338,-267 -318,-245 -316,-241 -314,-226 -317,-239 -325,-248 -332,-260 -317,-251 -311,-240 -304,-233 -276,-234 -270,-230 -271,-233 -278,-237 -316,-245 -328,-250 -329,-243 -325,-233 -319,-225 -313,-220 -299,-213 -275,-207 -310,-223 -327,-236 -335,-246" fill="none" stroke-linejoin="round" stroke-linecap="round" stroke-opacity=".3" stroke="#373a3d" stroke-width="7" filter="url(#squiggly-animated)"/><polyline id="SvgjsPolyline1293" points="-270,-261 -255,-263 -224,-264 -220,-262 -200,-259 -174,-249 -150,-248 -134,-249 -113,-255 -75,-258 -120,-231 -140,-223 -168,-221 -200,-215 -208,-212 -239,-210 -241,-208 -241,-204 -239,-203 -140,-191 -124,-194 -102,-201 -94,-201 -116,-201 -138,-207 -163,-216 -172,-221 -205,-230 -229,-230 -239,-228 -253,-216 -266,-202 -278,-205 -281,-208 -281,-211 -245,-211 -228,-203 -220,-191 -220,-188 -222,-179 -231,-171 -251,-170 -263,-172 -273,-176 -293,-193 -296,-198 -301,-202 -295,-197 -287,-196" fill="none" stroke-linejoin="round" stroke-linecap="round" stroke-opacity=".3" stroke="#e0e0ec" stroke-width="20" filter="url(#squiggly-animated)"/><polyline id="SvgjsPolyline1299" points="-337,-264 -341,-265 -345,-270 -368,-272 -370,-274 -346,-277 -327,-273 -295,-259 -252,-236 -242,-233 -236,-233 -246,-233 -274,-238 -292,-243 -329,-264 -344,-268 -381,-267 -386,-266 -434,-242 -445,-228 -453,-211 -457,-197 -459,-195 -453,-212 -436,-231 -415,-258 -405,-265 -396,-269 -380,-267 -376,-272" fill="none" stroke-linejoin="round" stroke-linecap="round" stroke-opacity=".3" stroke="#e0e0ec" stroke-width="20" filter="url(#squiggly-animated)"/><polyline id="SvgjsPolyline1305" points="-390,-272 -435,-272 -427,-270 -373,-277 -335,-285 -314,-285 -300,-282 -287,-273 -269,-264" fill="none" stroke-linejoin="round" stroke-linecap="round" stroke-opacity=".3" stroke="#e0e0ec" stroke-width="20" filter="url(#squiggly-animated)"/><polyline id="SvgjsPolyline1309" points="-342,-158 -342,-143 -336,-131 -337,-127 -346,-123 -353,-122 -376,-122 -385,-126" fill="none" stroke-linejoin="round" stroke-linecap="round" stroke-opacity=".3" stroke="#8b572a" stroke-width="20" filter="url(#squiggly)"/><polyline id="SvgjsPolyline1313" points="-317,-127 -310,-128 -305,-132 -302,-139 -302,-146 -318,-175 -319,-181 -301,-157 -288,-143 -285,-137 -268,-128 -255,-128" fill="none" stroke-linejoin="round" stroke-linecap="round" stroke-opacity=".3" stroke="#8b572a" stroke-width="20" filter="url(#squiggly)"/><polyline id="SvgjsPolyline1317" points="-253,-129 -269,-124" fill="none" stroke-linejoin="round" stroke-linecap="round" stroke-opacity=".3" stroke="#8b572a" stroke-width="20" filter="url(#squiggly)"/><polyline id="SvgjsPolyline1321" points="-286,-113 -303,-110 -314,-110 -349,-113 -359,-118 -355,-111 -317,-93 -271,-92 -264,-93 -257,-97 -254,-97" fill="none" stroke-linejoin="round" stroke-linecap="round" stroke-opacity=".3" stroke="#8b572a" stroke-width="20" filter="url(#squiggly)"/><polyline id="SvgjsPolyline1325" points="-241,-115 -277,-115 -288,-113 -297,-116 -311,-127 -319,-139 -323,-152 -331,-162 -334,-165 -341,-168 -348,-168 -363,-160 -375,-157 -383,-134 -358,-133 -354,-136 -343,-159 -343,-162 -347,-168 -348,-175 -351,-176 -365,-174 -373,-177 -377,-173 -383,-159 -395,-114 -399,-106 -399,-102 -395,-97 -405,-118 -405,-124 -402,-117 -401,-109 -398,-104 -385,-100 -365,-99 -362,-97 -347,-96" fill="none" stroke-linejoin="round" stroke-linecap="round" stroke-opacity=".3" stroke="#8b572a" stroke-width="20" filter="url(#squiggly)"/><polyline id="SvgjsPolyline1329" points="-341,-176 -313,-176 -296,-165" fill="none" stroke-linejoin="round" stroke-linecap="round" stroke-opacity=".3" stroke="#8b572a" stroke-width="20" filter="url(#squiggly)"/><polyline id="SvgjsPolyline1333" points="-351,-185 -313,-185 -310,-183 -307,-177 -302,-156 -295,-145 -289,-141 -280,-140" fill="none" stroke-linejoin="round" stroke-linecap="round" stroke-opacity=".3" stroke="#8b572a" stroke-width="20" filter="url(#squiggly)"/><polyline id="SvgjsPolyline1337" points="-384,-176 -398,-168 -412,-167 -415,-163 -419,-149 -428,-129 -406,-156 -391,-186 -396,-170 -405,-152 -411,-121 -418,-106 -419,-96 -416,-93 -393,-94 -377,-98 -357,-96" fill="none" stroke-linejoin="round" stroke-linecap="round" stroke-opacity=".3" stroke="#8b572a" stroke-width="20" filter="url(#squiggly)"/><polyline id="SvgjsPolyline1341" points="-401,-65 -398,-68 -379,-72 -371,-71 -371,-69 -382,-68 -414,-59 -427,-51 -431,-46 -431,-38 -418,-27 -405,-21 -396,-13 -379,-4 -370,8 -370,11" fill="none" stroke-linejoin="round" stroke-linecap="round" stroke-opacity=".3" stroke="#8b572a" stroke-width="20" filter="url(#squiggly)"/><polyline id="SvgjsPolyline1347" points="-212,-251 -203,-260 -191,-265 -183,-267 -171,-267 -159,-263 -151,-256 -143,-246 -133,-239 -111,-238 -99,-241 -61,-257" fill="none" stroke-linejoin="round" stroke-linecap="round" stroke-opacity=".3" stroke="#e2caeb" stroke-width="20" filter="url(#squiggly-animated)"/><polyline id="SvgjsPolyline1353" points="-68,-199 -85,-198 -108,-189 -130,-178 -137,-178 -144,-181 -159,-191 -169,-195 -185,-198 -195,-197 -205,-193 -221,-184 -228,-177 -237,-176 -250,-177 -267,-181 -272,-183 -280,-190 -284,-190 -285,-193" fill="none" stroke-linejoin="round" stroke-linecap="round" stroke-opacity=".3" stroke="#e2caeb" stroke-width="20" filter="url(#squiggly-animated)"/><polyline id="SvgjsPolyline1359" points="-313,-264 -303,-259 -289,-258 -279,-259 -266,-263 -235,-264 -231,-267" fill="none" stroke-linejoin="round" stroke-linecap="round" stroke-opacity=".3" stroke="#e2caeb" stroke-width="20" filter="url(#squiggly-animated)"/><polyline id="SvgjsPolyline1375" points="-456,-64 -429,-57 -383,-30 -367,-25 -339,-9 -297,2 -270,2 -265,0 -265,-2 -255,-4 -226,-4 -210,3 -189,5 -169,9 -152,15 -124,18 -92,17 -61,-2 -61,-22 -64,-33 -64,-38 -60,-43 -62,-63 -81,-67 -145,-55 -223,-38 -230,-38 -253,-33 -341,-19 -355,-11 -382,8 -412,38 -418,40 -438,40 -457,30 -461,26 -461,6 -463,-1 -463,-6 -461,-6" fill-opacity=".3" fill="#a585e0" filter="url(#water)"/><polyline id="SvgjsPolyline1380" points="-57,-52 -64,-52 -99,-37 -142,-23 -153,-21 -165,-16 -202,9 -224,16 -226,15 -275,25 -288,26 -320,0 -331,-3 -334,-7 -357,-14 -380,-26 -386,-31 -421,-41 -446,-41 -453,-24 -456,-1 -457,37 -451,42 -449,32 -450,29" fill-opacity=".3" fill="#6d50a3" filter="url(#water)"/><polyline id="SvgjsPolyline1385" points="-60,-89 -141,-61 -226,-43 -259,-39 -261,-40 -299,-34 -343,-33 -383,-28 -399,-30 -422,-66 -427,-67 -431,-76 -441,-87 -446,-88 -464,-76 -471,-66" fill-opacity=".3" fill="#9650a3" filter="url(#water)"/><polyline id="SvgjsPolyline1390" points="-56,-81 -133,-67 -233,-38 -252,-37 -331,-16 -371,-12 -376,-13 -429,0 -441,-1 -473,2 -480,4" fill-opacity=".3" fill="#2a3788" filter="url(#water)"/><polyline id="SvgjsPolyline1395" points="-458,-80 -455,-70 -432,-58 -406,-40 -361,-27 -326,-18 -303,-15 -301,-20 -272,-20 -236,-8 -210,-4 -156,0 -140,4 -133,1 -111,12 -93,19 -77,21 -43,31 -42,33" fill-opacity=".3" fill="#2a3788" filter="url(#water)"/><polyline id="SvgjsPolyline1401" points="-149,-80 -123,-57 -107,-47 -75,-46" fill-opacity=".3" fill="#2a3788" filter="url(#squiggly-animated)"/><polyline id="SvgjsPolyline1407" points="-189,-73 -181,-61 -167,-50 -158,-46 -149,-44 -128,-44 -122,-46" fill-opacity=".3" fill="#2a3788" filter="url(#squiggly-animated)"/><polyline id="SvgjsPolyline1413" points="-49,-68 -80,-36 -90,-30 -105,-28" fill-opacity=".3" fill="#2a3788" filter="url(#squiggly-animated)"/><polyline id="SvgjsPolyline1419" points="-78,6 -99,7 -118,5 -151,-14" fill-opacity=".3" fill="#2a3788" filter="url(#squiggly-animated)"/><polyline id="SvgjsPolyline1425" points="-237,-75 -228,-59 -203,-43 -194,-40 -169,-38" fill-opacity=".3" fill="#2a3788" filter="url(#squiggly-animated)"/><polyline id="SvgjsPolyline1429" points="-64,-280 -132,-277 -169,-283 -172,-285 -223,-281 -232,-283 -290,-271 -309,-273 -322,-267 -320,-268 -276,-260 -254,-259 -238,-248 -202,-243 -187,-238 -173,-227 -187,-215 -203,-212 -218,-204 -255,-204 -272,-199 -274,-197 -269,-194 -252,-192 -204,-191 -144,-192 -83,-175 -74,-169 -72,-169 -72,-171" fill-opacity=".3" fill="#0728fd" filter="url(#squiggly)"/><polyline id="SvgjsPolyline1433" points="-53,-148 -91,-153 -141,-170 -223,-185 -228,-188 -274,-185 -296,-190 -312,-190 -330,-199 -341,-198 -315,-206 -286,-225 -266,-242 -255,-249 -247,-258 -246,-264 -236,-283 -230,-290 -226,-298 -225,-304 -216,-306 -184,-307 -119,-297 -108,-293 -93,-291" fill-opacity=".3" fill="#0728fd" filter="url(#squiggly)"/><polyline id="SvgjsPolyline1437" points="-320,-288 -305,-272 -286,-263 -263,-255 -248,-243 -234,-235 -220,-220 -210,-216 -197,-220 -176,-238 -134,-284 -129,-294" fill-opacity=".3" fill="#0728fd" filter="url(#squiggly)"/><polyline id="SvgjsPolyline1441" points="-285,-141 -286,-154 -297,-186 -295,-191 -280,-199 -229,-202 -208,-206 -148,-208 -87,-205 -73,-206 -54,-204 -42,-200" fill-opacity=".3" fill="#0728fd" filter="url(#squiggly)"/><polyline id="SvgjsPolyline1447" points="-121,-242 -121,-242" fill-opacity=".3" fill="#f8b976" filter="url(#squiggly-animated)"/><polyline id="SvgjsPolyline1453" points="-121,-242 -124,-241 -118,-240 -118,-243 -120,-245 -125,-243 -126,-240" fill-opacity=".3" fill="#f8b976" filter="url(#squiggly-animated)"/><polyline id="SvgjsPolyline1459" points="-124,-247 -123,-243 -120,-240 -115,-241 -115,-245 -118,-246 -126,-244" fill="none" stroke-linejoin="round" stroke-linecap="round" stroke-opacity=".3" stroke="#f8b976" stroke-width="68" filter="url(#squiggly-animated)"/><polyline id="SvgjsPolyline1463" points="-122,-244 -122,-244" fill="none" stroke-linejoin="round" stroke-linecap="round" stroke-opacity=".3" stroke="#f8b976" stroke-width="68" filter="url(#squiggly)"/><polyline id="SvgjsPolyline1467" points="-122,-244 -124,-241 -121,-236 -116,-237 -115,-241 -118,-244 -124,-244 -127,-242 -130,-236 -129,-231 -126,-229 -118,-234 -120,-243 -124,-247 -132,-243 -130,-246 -131,-243" fill="none" stroke-linejoin="round" stroke-linecap="round" stroke-opacity=".3" stroke="#f8b976" stroke-width="68" filter="url(#squiggly)"/><polyline id="SvgjsPolyline1471" points="-133,-254 -135,-254 -140,-246 -140,-238 -135,-233 -125,-235 -119,-241 -119,-248 -122,-252 -131,-253 -141,-250 -147,-240 -145,-231 -138,-226 -126,-228 -120,-237 -120,-243 -124,-247 -135,-250 -147,-246 -151,-238 -152,-229 -144,-225 -128,-228 -123,-236 -122,-246 -128,-251 -136,-254 -142,-253 -144,-251" fill="none" stroke-linejoin="round" stroke-linecap="round" stroke-opacity=".3" stroke="#f8b976" stroke-width="68" filter="url(#squiggly)"/><polyline id="SvgjsPolyline1475" points="-144,-251 -140,-239 -126,-240 -118,-243 -114,-249 -118,-256 -135,-264 -139,-264 -141,-241 -129,-232" fill="none" stroke-linejoin="round" stroke-linecap="round" stroke-opacity=".3" stroke="#f8b976" stroke-width="68" filter="url(#squiggly)"/><polyline id="SvgjsPolyline1479" points="-129,-232 -122,-226 -118,-227 -113,-233 -112,-241 -119,-250 -127,-253 -133,-253 -144,-241 -150,-229 -150,-221 -144,-207 -132,-205 -121,-208 -106,-238 -115,-253 -120,-253 -128,-251 -137,-244 -141,-236" fill="none" stroke-linejoin="round" stroke-linecap="round" stroke-opacity=".3" stroke="#f8b976" stroke-width="68" filter="url(#squiggly)"/><polyline id="SvgjsPolyline1483" points="-142,-234 -139,-214 -118,-214 -115,-217 -108,-231 -115,-236 -123,-238 -127,-242" fill="none" stroke-linejoin="round" stroke-linecap="round" stroke-opacity=".3" stroke="#f8b976" stroke-width="68" filter="url(#squiggly)"/></g><filter id="canvas"><feTurbulence id="SvgjsFeTurbulence1057" baseFrequency="0.06 0.7" filterName="feTurbulence" numOctaves="3" result="n" seed="20"/><feTurbulence id="SvgjsFeTurbulence1058" baseFrequency="0.7 0.06" filterName="feTurbulence" in="n" numOctaves="3" result="n2" seed="20"/><feBlend id="SvgjsFeBlend1059" filterName="feBlend" in="n" in2="n2" mode="normal" result="blendedNoise"/><feDiffuseLighting id="SvgjsFeDiffuseLighting1060" filterName="feDiffuseLighting" in="blendedNoise" lighting-color="white" result="done" surfaceScale="2"><feDistantLight id="SvgjsFeDistantLight1061" azimuth="45" elevation="60" filterName="feDistantLight"/></feDiffuseLighting></filter><filter id="water"><feTurbulence id="SvgjsFeTurbulence1392" baseFrequency="0.01 0.05" filterName="feTurbulence" numOctaves="1" result="turbulence" seed="0" stitchTiles="noStitch"/><feDisplacementMap id="SvgjsFeDisplacementMap1393" filterName="feDisplacementMap" in="SourceGraphic" in2="turbulence" result="displacementMap" scale="200"><animate id="SvgjsAnimate1394" attributeName="scale" dur="3" values="200;100;50;100;200" attributeType="XML" repeatCount="indefinite"/></feDisplacementMap></filter><filter id="squiggly-animated"><feTurbulence id="SvgjsFeTurbulence1022" baseFrequency="0.02 0.02" filterName="feTurbulence" numOctaves="3" result="noise" seed="0"><animate id="SvgjsAnimate1456" attributeName="seed" dur="0.25" values="0;1;2;4" attributeType="XML" repeatCount="indefinite"/></feTurbulence><feDisplacementMap id="SvgjsFeDisplacementMap1024" filterName="feDisplacementMap" in="SourceGraphic" in2="noise" result="done" scale="6"><animate id="SvgjsAnimate1458" attributeName="scale" dur="0.25" values="6;9;12;15" attributeType="XML" repeatCount="indefinite"/></feDisplacementMap></filter><filter id="squiggly"><feTurbulence id="SvgjsFeTurbulence1481" baseFrequency="0.02 0.02" filterName="feTurbulence" numOctaves="3" result="noise" seed="0"/><feDisplacementMap id="SvgjsFeDisplacementMap1482" filterName="feDisplacementMap" in="SourceGraphic" in2="noise" result="done" scale="6"/></filter></svg>